<?xml version="1.0" encoding="utf-8" standalone="no"?>
<!DOCTYPE svg PUBLIC "-//W3C//DTD SVG 1.1//EN"
  "http://www.w3.org/Graphics/SVG/1.1/DTD/svg11.dtd">
<svg xmlns:xlink="http://www.w3.org/1999/xlink" width="1144.66625pt" height="424.716562pt" viewBox="0 0 1144.66625 424.716562" xmlns="http://www.w3.org/2000/svg" version="1.1">
 <metadata>
  <rdf:RDF xmlns:dc="http://purl.org/dc/elements/1.1/" xmlns:cc="http://creativecommons.org/ns#" xmlns:rdf="http://www.w3.org/1999/02/22-rdf-syntax-ns#">
   <cc:Work>
    <dc:type rdf:resource="http://purl.org/dc/dcmitype/StillImage"/>
    <dc:date>2025-06-01T00:38:21.766341</dc:date>
    <dc:format>image/svg+xml</dc:format>
    <dc:creator>
     <cc:Agent>
      <dc:title>Matplotlib v3.10.3, https://matplotlib.org/</dc:title>
     </cc:Agent>
    </dc:creator>
   </cc:Work>
  </rdf:RDF>
 </metadata>
 <defs>
  <style type="text/css">*{stroke-linejoin: round; stroke-linecap: butt}</style>
 </defs>
 <g id="figure_1">
  <g id="patch_1">
   <path d="M 0 424.716562 
L 1144.66625 424.716562 
L 1144.66625 0 
L 0 0 
z
" style="fill: #ffffff"/>
  </g>
  <g id="axes_1">
   <g id="patch_2">
    <path d="M 38.77625 388.0875 
L 562.52375 388.0875 
L 562.52375 24.8475 
L 38.77625 24.8475 
z
" style="fill: #eaeaf2"/>
   </g>
   <g id="matplotlib.axis_1">
    <g id="xtick_1">
     <g id="line2d_1">
      <path d="M 87.000087 388.0875 
L 87.000087 24.8475 
" clip-path="url(#pbeee3090d3)" style="fill: none; stroke: #ffffff; stroke-opacity: 0.3; stroke-width: 0.8; stroke-linecap: round"/>
     </g>
     <g id="line2d_2"/>
     <g id="text_1">
      <!-- 10 tests -->
      <g style="fill: #262626" transform="translate(69.491494 398.745312) scale(0.1 -0.1)">
       <defs>
        <path id="ArialMT-31" d="M 2384 0 
L 1822 0 
L 1822 3584 
Q 1619 3391 1289 3197 
Q 959 3003 697 2906 
L 697 3450 
Q 1169 3672 1522 3987 
Q 1875 4303 2022 4600 
L 2384 4600 
L 2384 0 
z
" transform="scale(0.015625)"/>
        <path id="ArialMT-30" d="M 266 2259 
Q 266 3072 433 3567 
Q 600 4063 929 4331 
Q 1259 4600 1759 4600 
Q 2128 4600 2406 4451 
Q 2684 4303 2865 4023 
Q 3047 3744 3150 3342 
Q 3253 2941 3253 2259 
Q 3253 1453 3087 958 
Q 2922 463 2592 192 
Q 2263 -78 1759 -78 
Q 1097 -78 719 397 
Q 266 969 266 2259 
z
M 844 2259 
Q 844 1131 1108 757 
Q 1372 384 1759 384 
Q 2147 384 2411 759 
Q 2675 1134 2675 2259 
Q 2675 3391 2411 3762 
Q 2147 4134 1753 4134 
Q 1366 4134 1134 3806 
Q 844 3388 844 2259 
z
" transform="scale(0.015625)"/>
        <path id="ArialMT-20" transform="scale(0.015625)"/>
        <path id="ArialMT-74" d="M 1650 503 
L 1731 6 
Q 1494 -44 1306 -44 
Q 1000 -44 831 53 
Q 663 150 594 308 
Q 525 466 525 972 
L 525 2881 
L 113 2881 
L 113 3319 
L 525 3319 
L 525 4141 
L 1084 4478 
L 1084 3319 
L 1650 3319 
L 1650 2881 
L 1084 2881 
L 1084 941 
Q 1084 700 1114 631 
Q 1144 563 1211 522 
Q 1278 481 1403 481 
Q 1497 481 1650 503 
z
" transform="scale(0.015625)"/>
        <path id="ArialMT-65" d="M 2694 1069 
L 3275 997 
Q 3138 488 2766 206 
Q 2394 -75 1816 -75 
Q 1088 -75 661 373 
Q 234 822 234 1631 
Q 234 2469 665 2931 
Q 1097 3394 1784 3394 
Q 2450 3394 2872 2941 
Q 3294 2488 3294 1666 
Q 3294 1616 3291 1516 
L 816 1516 
Q 847 969 1125 678 
Q 1403 388 1819 388 
Q 2128 388 2347 550 
Q 2566 713 2694 1069 
z
M 847 1978 
L 2700 1978 
Q 2663 2397 2488 2606 
Q 2219 2931 1791 2931 
Q 1403 2931 1139 2672 
Q 875 2413 847 1978 
z
" transform="scale(0.015625)"/>
        <path id="ArialMT-73" d="M 197 991 
L 753 1078 
Q 800 744 1014 566 
Q 1228 388 1613 388 
Q 2000 388 2187 545 
Q 2375 703 2375 916 
Q 2375 1106 2209 1216 
Q 2094 1291 1634 1406 
Q 1016 1563 777 1677 
Q 538 1791 414 1992 
Q 291 2194 291 2438 
Q 291 2659 392 2848 
Q 494 3038 669 3163 
Q 800 3259 1026 3326 
Q 1253 3394 1513 3394 
Q 1903 3394 2198 3281 
Q 2494 3169 2634 2976 
Q 2775 2784 2828 2463 
L 2278 2388 
Q 2241 2644 2061 2787 
Q 1881 2931 1553 2931 
Q 1166 2931 1000 2803 
Q 834 2675 834 2503 
Q 834 2394 903 2306 
Q 972 2216 1119 2156 
Q 1203 2125 1616 2013 
Q 2213 1853 2448 1751 
Q 2684 1650 2818 1456 
Q 2953 1263 2953 975 
Q 2953 694 2789 445 
Q 2625 197 2315 61 
Q 2006 -75 1616 -75 
Q 969 -75 630 194 
Q 291 463 197 991 
z
" transform="scale(0.015625)"/>
       </defs>
       <use xlink:href="#ArialMT-31"/>
       <use xlink:href="#ArialMT-30" transform="translate(55.615234 0)"/>
       <use xlink:href="#ArialMT-20" transform="translate(111.230469 0)"/>
       <use xlink:href="#ArialMT-74" transform="translate(139.013672 0)"/>
       <use xlink:href="#ArialMT-65" transform="translate(166.796875 0)"/>
       <use xlink:href="#ArialMT-73" transform="translate(222.412109 0)"/>
       <use xlink:href="#ArialMT-74" transform="translate(272.412109 0)"/>
       <use xlink:href="#ArialMT-73" transform="translate(300.195312 0)"/>
      </g>
     </g>
    </g>
    <g id="xtick_2">
     <g id="line2d_3">
      <path d="M 148.04292 388.0875 
L 148.04292 24.8475 
" clip-path="url(#pbeee3090d3)" style="fill: none; stroke: #ffffff; stroke-opacity: 0.3; stroke-width: 0.8; stroke-linecap: round"/>
     </g>
     <g id="line2d_4"/>
     <g id="text_2">
      <!-- 20 tests -->
      <g style="fill: #262626" transform="translate(130.534326 398.745312) scale(0.1 -0.1)">
       <defs>
        <path id="ArialMT-32" d="M 3222 541 
L 3222 0 
L 194 0 
Q 188 203 259 391 
Q 375 700 629 1000 
Q 884 1300 1366 1694 
Q 2113 2306 2375 2664 
Q 2638 3022 2638 3341 
Q 2638 3675 2398 3904 
Q 2159 4134 1775 4134 
Q 1369 4134 1125 3890 
Q 881 3647 878 3216 
L 300 3275 
Q 359 3922 746 4261 
Q 1134 4600 1788 4600 
Q 2447 4600 2831 4234 
Q 3216 3869 3216 3328 
Q 3216 3053 3103 2787 
Q 2991 2522 2730 2228 
Q 2469 1934 1863 1422 
Q 1356 997 1212 845 
Q 1069 694 975 541 
L 3222 541 
z
" transform="scale(0.015625)"/>
       </defs>
       <use xlink:href="#ArialMT-32"/>
       <use xlink:href="#ArialMT-30" transform="translate(55.615234 0)"/>
       <use xlink:href="#ArialMT-20" transform="translate(111.230469 0)"/>
       <use xlink:href="#ArialMT-74" transform="translate(139.013672 0)"/>
       <use xlink:href="#ArialMT-65" transform="translate(166.796875 0)"/>
       <use xlink:href="#ArialMT-73" transform="translate(222.412109 0)"/>
       <use xlink:href="#ArialMT-74" transform="translate(272.412109 0)"/>
       <use xlink:href="#ArialMT-73" transform="translate(300.195312 0)"/>
      </g>
     </g>
    </g>
    <g id="xtick_3">
     <g id="line2d_5">
      <path d="M 209.085752 388.0875 
L 209.085752 24.8475 
" clip-path="url(#pbeee3090d3)" style="fill: none; stroke: #ffffff; stroke-opacity: 0.3; stroke-width: 0.8; stroke-linecap: round"/>
     </g>
     <g id="line2d_6"/>
     <g id="text_3">
      <!-- 50 tests -->
      <g style="fill: #262626" transform="translate(191.577158 398.745312) scale(0.1 -0.1)">
       <defs>
        <path id="ArialMT-35" d="M 266 1200 
L 856 1250 
Q 922 819 1161 601 
Q 1400 384 1738 384 
Q 2144 384 2425 690 
Q 2706 997 2706 1503 
Q 2706 1984 2436 2262 
Q 2166 2541 1728 2541 
Q 1456 2541 1237 2417 
Q 1019 2294 894 2097 
L 366 2166 
L 809 4519 
L 3088 4519 
L 3088 3981 
L 1259 3981 
L 1013 2750 
Q 1425 3038 1878 3038 
Q 2478 3038 2890 2622 
Q 3303 2206 3303 1553 
Q 3303 931 2941 478 
Q 2500 -78 1738 -78 
Q 1113 -78 717 272 
Q 322 622 266 1200 
z
" transform="scale(0.015625)"/>
       </defs>
       <use xlink:href="#ArialMT-35"/>
       <use xlink:href="#ArialMT-30" transform="translate(55.615234 0)"/>
       <use xlink:href="#ArialMT-20" transform="translate(111.230469 0)"/>
       <use xlink:href="#ArialMT-74" transform="translate(139.013672 0)"/>
       <use xlink:href="#ArialMT-65" transform="translate(166.796875 0)"/>
       <use xlink:href="#ArialMT-73" transform="translate(222.412109 0)"/>
       <use xlink:href="#ArialMT-74" transform="translate(272.412109 0)"/>
       <use xlink:href="#ArialMT-73" transform="translate(300.195312 0)"/>
      </g>
     </g>
    </g>
    <g id="xtick_4">
     <g id="line2d_7">
      <path d="M 270.128584 388.0875 
L 270.128584 24.8475 
" clip-path="url(#pbeee3090d3)" style="fill: none; stroke: #ffffff; stroke-opacity: 0.3; stroke-width: 0.8; stroke-linecap: round"/>
     </g>
     <g id="line2d_8"/>
     <g id="text_4">
      <!-- 100 tests -->
      <g style="fill: #262626" transform="translate(249.839521 398.745312) scale(0.1 -0.1)">
       <use xlink:href="#ArialMT-31"/>
       <use xlink:href="#ArialMT-30" transform="translate(55.615234 0)"/>
       <use xlink:href="#ArialMT-30" transform="translate(111.230469 0)"/>
       <use xlink:href="#ArialMT-20" transform="translate(166.845703 0)"/>
       <use xlink:href="#ArialMT-74" transform="translate(194.628906 0)"/>
       <use xlink:href="#ArialMT-65" transform="translate(222.412109 0)"/>
       <use xlink:href="#ArialMT-73" transform="translate(278.027344 0)"/>
       <use xlink:href="#ArialMT-74" transform="translate(328.027344 0)"/>
       <use xlink:href="#ArialMT-73" transform="translate(355.810547 0)"/>
      </g>
     </g>
    </g>
    <g id="xtick_5">
     <g id="line2d_9">
      <path d="M 331.171416 388.0875 
L 331.171416 24.8475 
" clip-path="url(#pbeee3090d3)" style="fill: none; stroke: #ffffff; stroke-opacity: 0.3; stroke-width: 0.8; stroke-linecap: round"/>
     </g>
     <g id="line2d_10"/>
     <g id="text_5">
      <!-- 200 tests -->
      <g style="fill: #262626" transform="translate(310.882354 398.745312) scale(0.1 -0.1)">
       <use xlink:href="#ArialMT-32"/>
       <use xlink:href="#ArialMT-30" transform="translate(55.615234 0)"/>
       <use xlink:href="#ArialMT-30" transform="translate(111.230469 0)"/>
       <use xlink:href="#ArialMT-20" transform="translate(166.845703 0)"/>
       <use xlink:href="#ArialMT-74" transform="translate(194.628906 0)"/>
       <use xlink:href="#ArialMT-65" transform="translate(222.412109 0)"/>
       <use xlink:href="#ArialMT-73" transform="translate(278.027344 0)"/>
       <use xlink:href="#ArialMT-74" transform="translate(328.027344 0)"/>
       <use xlink:href="#ArialMT-73" transform="translate(355.810547 0)"/>
      </g>
     </g>
    </g>
    <g id="xtick_6">
     <g id="line2d_11">
      <path d="M 392.214248 388.0875 
L 392.214248 24.8475 
" clip-path="url(#pbeee3090d3)" style="fill: none; stroke: #ffffff; stroke-opacity: 0.3; stroke-width: 0.8; stroke-linecap: round"/>
     </g>
     <g id="line2d_12"/>
     <g id="text_6">
      <!-- 500 tests -->
      <g style="fill: #262626" transform="translate(371.925186 398.745312) scale(0.1 -0.1)">
       <use xlink:href="#ArialMT-35"/>
       <use xlink:href="#ArialMT-30" transform="translate(55.615234 0)"/>
       <use xlink:href="#ArialMT-30" transform="translate(111.230469 0)"/>
       <use xlink:href="#ArialMT-20" transform="translate(166.845703 0)"/>
       <use xlink:href="#ArialMT-74" transform="translate(194.628906 0)"/>
       <use xlink:href="#ArialMT-65" transform="translate(222.412109 0)"/>
       <use xlink:href="#ArialMT-73" transform="translate(278.027344 0)"/>
       <use xlink:href="#ArialMT-74" transform="translate(328.027344 0)"/>
       <use xlink:href="#ArialMT-73" transform="translate(355.810547 0)"/>
      </g>
     </g>
    </g>
    <g id="xtick_7">
     <g id="line2d_13">
      <path d="M 453.25708 388.0875 
L 453.25708 24.8475 
" clip-path="url(#pbeee3090d3)" style="fill: none; stroke: #ffffff; stroke-opacity: 0.3; stroke-width: 0.8; stroke-linecap: round"/>
     </g>
     <g id="line2d_14"/>
     <g id="text_7">
      <!-- 1000 tests -->
      <g style="fill: #262626" transform="translate(430.187549 398.745312) scale(0.1 -0.1)">
       <use xlink:href="#ArialMT-31"/>
       <use xlink:href="#ArialMT-30" transform="translate(55.615234 0)"/>
       <use xlink:href="#ArialMT-30" transform="translate(111.230469 0)"/>
       <use xlink:href="#ArialMT-30" transform="translate(166.845703 0)"/>
       <use xlink:href="#ArialMT-20" transform="translate(222.460938 0)"/>
       <use xlink:href="#ArialMT-74" transform="translate(250.244141 0)"/>
       <use xlink:href="#ArialMT-65" transform="translate(278.027344 0)"/>
       <use xlink:href="#ArialMT-73" transform="translate(333.642578 0)"/>
       <use xlink:href="#ArialMT-74" transform="translate(383.642578 0)"/>
       <use xlink:href="#ArialMT-73" transform="translate(411.425781 0)"/>
      </g>
     </g>
    </g>
    <g id="xtick_8">
     <g id="line2d_15">
      <path d="M 514.299913 388.0875 
L 514.299913 24.8475 
" clip-path="url(#pbeee3090d3)" style="fill: none; stroke: #ffffff; stroke-opacity: 0.3; stroke-width: 0.8; stroke-linecap: round"/>
     </g>
     <g id="line2d_16"/>
     <g id="text_8">
      <!-- 2000 tests -->
      <g style="fill: #262626" transform="translate(491.230381 398.745312) scale(0.1 -0.1)">
       <use xlink:href="#ArialMT-32"/>
       <use xlink:href="#ArialMT-30" transform="translate(55.615234 0)"/>
       <use xlink:href="#ArialMT-30" transform="translate(111.230469 0)"/>
       <use xlink:href="#ArialMT-30" transform="translate(166.845703 0)"/>
       <use xlink:href="#ArialMT-20" transform="translate(222.460938 0)"/>
       <use xlink:href="#ArialMT-74" transform="translate(250.244141 0)"/>
       <use xlink:href="#ArialMT-65" transform="translate(278.027344 0)"/>
       <use xlink:href="#ArialMT-73" transform="translate(333.642578 0)"/>
       <use xlink:href="#ArialMT-74" transform="translate(383.642578 0)"/>
       <use xlink:href="#ArialMT-73" transform="translate(411.425781 0)"/>
      </g>
     </g>
    </g>
    <g id="text_9">
     <!-- Test Suite Size -->
     <g style="fill: #262626" transform="translate(251.765937 414.75375) scale(0.14 -0.14)">
      <defs>
       <path id="Arial-BoldMT-54" d="M 1497 0 
L 1497 3806 
L 138 3806 
L 138 4581 
L 3778 4581 
L 3778 3806 
L 2422 3806 
L 2422 0 
L 1497 0 
z
" transform="scale(0.015625)"/>
       <path id="Arial-BoldMT-65" d="M 2381 1056 
L 3256 909 
Q 3088 428 2723 176 
Q 2359 -75 1813 -75 
Q 947 -75 531 491 
Q 203 944 203 1634 
Q 203 2459 634 2926 
Q 1066 3394 1725 3394 
Q 2466 3394 2894 2905 
Q 3322 2416 3303 1406 
L 1103 1406 
Q 1113 1016 1316 798 
Q 1519 581 1822 581 
Q 2028 581 2168 693 
Q 2309 806 2381 1056 
z
M 2431 1944 
Q 2422 2325 2234 2523 
Q 2047 2722 1778 2722 
Q 1491 2722 1303 2513 
Q 1116 2303 1119 1944 
L 2431 1944 
z
" transform="scale(0.015625)"/>
       <path id="Arial-BoldMT-73" d="M 150 947 
L 1031 1081 
Q 1088 825 1259 692 
Q 1431 559 1741 559 
Q 2081 559 2253 684 
Q 2369 772 2369 919 
Q 2369 1019 2306 1084 
Q 2241 1147 2013 1200 
Q 950 1434 666 1628 
Q 272 1897 272 2375 
Q 272 2806 612 3100 
Q 953 3394 1669 3394 
Q 2350 3394 2681 3172 
Q 3013 2950 3138 2516 
L 2309 2363 
Q 2256 2556 2107 2659 
Q 1959 2763 1684 2763 
Q 1338 2763 1188 2666 
Q 1088 2597 1088 2488 
Q 1088 2394 1175 2328 
Q 1294 2241 1995 2081 
Q 2697 1922 2975 1691 
Q 3250 1456 3250 1038 
Q 3250 581 2869 253 
Q 2488 -75 1741 -75 
Q 1063 -75 667 200 
Q 272 475 150 947 
z
" transform="scale(0.015625)"/>
       <path id="Arial-BoldMT-74" d="M 1981 3319 
L 1981 2619 
L 1381 2619 
L 1381 1281 
Q 1381 875 1398 808 
Q 1416 741 1477 697 
Q 1538 653 1625 653 
Q 1747 653 1978 738 
L 2053 56 
Q 1747 -75 1359 -75 
Q 1122 -75 931 4 
Q 741 84 652 211 
Q 563 338 528 553 
Q 500 706 500 1172 
L 500 2619 
L 97 2619 
L 97 3319 
L 500 3319 
L 500 3978 
L 1381 4491 
L 1381 3319 
L 1981 3319 
z
" transform="scale(0.015625)"/>
       <path id="Arial-BoldMT-20" transform="scale(0.015625)"/>
       <path id="Arial-BoldMT-53" d="M 231 1491 
L 1131 1578 
Q 1213 1125 1461 912 
Q 1709 700 2131 700 
Q 2578 700 2804 889 
Q 3031 1078 3031 1331 
Q 3031 1494 2936 1608 
Q 2841 1722 2603 1806 
Q 2441 1863 1863 2006 
Q 1119 2191 819 2459 
Q 397 2838 397 3381 
Q 397 3731 595 4036 
Q 794 4341 1167 4500 
Q 1541 4659 2069 4659 
Q 2931 4659 3367 4281 
Q 3803 3903 3825 3272 
L 2900 3231 
Q 2841 3584 2645 3739 
Q 2450 3894 2059 3894 
Q 1656 3894 1428 3728 
Q 1281 3622 1281 3444 
Q 1281 3281 1419 3166 
Q 1594 3019 2269 2859 
Q 2944 2700 3267 2529 
Q 3591 2359 3773 2064 
Q 3956 1769 3956 1334 
Q 3956 941 3737 597 
Q 3519 253 3119 86 
Q 2719 -81 2122 -81 
Q 1253 -81 787 320 
Q 322 722 231 1491 
z
" transform="scale(0.015625)"/>
       <path id="Arial-BoldMT-75" d="M 2644 0 
L 2644 497 
Q 2463 231 2167 78 
Q 1872 -75 1544 -75 
Q 1209 -75 943 72 
Q 678 219 559 484 
Q 441 750 441 1219 
L 441 3319 
L 1319 3319 
L 1319 1794 
Q 1319 1094 1367 936 
Q 1416 778 1544 686 
Q 1672 594 1869 594 
Q 2094 594 2272 717 
Q 2450 841 2515 1023 
Q 2581 1206 2581 1919 
L 2581 3319 
L 3459 3319 
L 3459 0 
L 2644 0 
z
" transform="scale(0.015625)"/>
       <path id="Arial-BoldMT-69" d="M 459 3769 
L 459 4581 
L 1338 4581 
L 1338 3769 
L 459 3769 
z
M 459 0 
L 459 3319 
L 1338 3319 
L 1338 0 
L 459 0 
z
" transform="scale(0.015625)"/>
       <path id="Arial-BoldMT-7a" d="M 106 0 
L 106 684 
L 1350 2113 
Q 1656 2463 1803 2609 
Q 1650 2600 1400 2597 
L 228 2591 
L 228 3319 
L 2972 3319 
L 2972 2697 
L 1703 1234 
L 1256 750 
Q 1622 772 1709 772 
L 3069 772 
L 3069 0 
L 106 0 
z
" transform="scale(0.015625)"/>
      </defs>
      <use xlink:href="#Arial-BoldMT-54"/>
      <use xlink:href="#Arial-BoldMT-65" transform="translate(53.708984 0)"/>
      <use xlink:href="#Arial-BoldMT-73" transform="translate(109.324219 0)"/>
      <use xlink:href="#Arial-BoldMT-74" transform="translate(164.939453 0)"/>
      <use xlink:href="#Arial-BoldMT-20" transform="translate(198.240234 0)"/>
      <use xlink:href="#Arial-BoldMT-53" transform="translate(226.023438 0)"/>
      <use xlink:href="#Arial-BoldMT-75" transform="translate(292.722656 0)"/>
      <use xlink:href="#Arial-BoldMT-69" transform="translate(353.806641 0)"/>
      <use xlink:href="#Arial-BoldMT-74" transform="translate(381.589844 0)"/>
      <use xlink:href="#Arial-BoldMT-65" transform="translate(414.890625 0)"/>
      <use xlink:href="#Arial-BoldMT-20" transform="translate(470.505859 0)"/>
      <use xlink:href="#Arial-BoldMT-53" transform="translate(498.289062 0)"/>
      <use xlink:href="#Arial-BoldMT-69" transform="translate(564.988281 0)"/>
      <use xlink:href="#Arial-BoldMT-7a" transform="translate(592.771484 0)"/>
      <use xlink:href="#Arial-BoldMT-65" transform="translate(642.771484 0)"/>
     </g>
    </g>
   </g>
   <g id="matplotlib.axis_2">
    <g id="ytick_1">
     <g id="line2d_17">
      <path d="M 38.77625 388.0875 
L 562.52375 388.0875 
" clip-path="url(#pbeee3090d3)" style="fill: none; stroke: #ffffff; stroke-opacity: 0.3; stroke-width: 0.8; stroke-linecap: round"/>
     </g>
     <g id="line2d_18"/>
     <g id="text_10">
      <!-- 0 -->
      <g style="fill: #262626" transform="translate(29.715313 391.666406) scale(0.1 -0.1)">
       <use xlink:href="#ArialMT-30"/>
      </g>
     </g>
    </g>
    <g id="ytick_2">
     <g id="line2d_19">
      <path d="M 38.77625 341.631971 
L 562.52375 341.631971 
" clip-path="url(#pbeee3090d3)" style="fill: none; stroke: #ffffff; stroke-opacity: 0.3; stroke-width: 0.8; stroke-linecap: round"/>
     </g>
     <g id="line2d_20"/>
     <g id="text_11">
      <!-- 2 -->
      <g style="fill: #262626" transform="translate(29.715313 345.210877) scale(0.1 -0.1)">
       <use xlink:href="#ArialMT-32"/>
      </g>
     </g>
    </g>
    <g id="ytick_3">
     <g id="line2d_21">
      <path d="M 38.77625 295.176442 
L 562.52375 295.176442 
" clip-path="url(#pbeee3090d3)" style="fill: none; stroke: #ffffff; stroke-opacity: 0.3; stroke-width: 0.8; stroke-linecap: round"/>
     </g>
     <g id="line2d_22"/>
     <g id="text_12">
      <!-- 4 -->
      <g style="fill: #262626" transform="translate(29.715313 298.755348) scale(0.1 -0.1)">
       <defs>
        <path id="ArialMT-34" d="M 2069 0 
L 2069 1097 
L 81 1097 
L 81 1613 
L 2172 4581 
L 2631 4581 
L 2631 1613 
L 3250 1613 
L 3250 1097 
L 2631 1097 
L 2631 0 
L 2069 0 
z
M 2069 1613 
L 2069 3678 
L 634 1613 
L 2069 1613 
z
" transform="scale(0.015625)"/>
       </defs>
       <use xlink:href="#ArialMT-34"/>
      </g>
     </g>
    </g>
    <g id="ytick_4">
     <g id="line2d_23">
      <path d="M 38.77625 248.720912 
L 562.52375 248.720912 
" clip-path="url(#pbeee3090d3)" style="fill: none; stroke: #ffffff; stroke-opacity: 0.3; stroke-width: 0.8; stroke-linecap: round"/>
     </g>
     <g id="line2d_24"/>
     <g id="text_13">
      <!-- 6 -->
      <g style="fill: #262626" transform="translate(29.715313 252.299819) scale(0.1 -0.1)">
       <defs>
        <path id="ArialMT-36" d="M 3184 3459 
L 2625 3416 
Q 2550 3747 2413 3897 
Q 2184 4138 1850 4138 
Q 1581 4138 1378 3988 
Q 1113 3794 959 3422 
Q 806 3050 800 2363 
Q 1003 2672 1297 2822 
Q 1591 2972 1913 2972 
Q 2475 2972 2870 2558 
Q 3266 2144 3266 1488 
Q 3266 1056 3080 686 
Q 2894 316 2569 119 
Q 2244 -78 1831 -78 
Q 1128 -78 684 439 
Q 241 956 241 2144 
Q 241 3472 731 4075 
Q 1159 4600 1884 4600 
Q 2425 4600 2770 4297 
Q 3116 3994 3184 3459 
z
M 888 1484 
Q 888 1194 1011 928 
Q 1134 663 1356 523 
Q 1578 384 1822 384 
Q 2178 384 2434 671 
Q 2691 959 2691 1453 
Q 2691 1928 2437 2201 
Q 2184 2475 1800 2475 
Q 1419 2475 1153 2201 
Q 888 1928 888 1484 
z
" transform="scale(0.015625)"/>
       </defs>
       <use xlink:href="#ArialMT-36"/>
      </g>
     </g>
    </g>
    <g id="ytick_5">
     <g id="line2d_25">
      <path d="M 38.77625 202.265383 
L 562.52375 202.265383 
" clip-path="url(#pbeee3090d3)" style="fill: none; stroke: #ffffff; stroke-opacity: 0.3; stroke-width: 0.8; stroke-linecap: round"/>
     </g>
     <g id="line2d_26"/>
     <g id="text_14">
      <!-- 8 -->
      <g style="fill: #262626" transform="translate(29.715313 205.844289) scale(0.1 -0.1)">
       <defs>
        <path id="ArialMT-38" d="M 1131 2484 
Q 781 2613 612 2850 
Q 444 3088 444 3419 
Q 444 3919 803 4259 
Q 1163 4600 1759 4600 
Q 2359 4600 2725 4251 
Q 3091 3903 3091 3403 
Q 3091 3084 2923 2848 
Q 2756 2613 2416 2484 
Q 2838 2347 3058 2040 
Q 3278 1734 3278 1309 
Q 3278 722 2862 322 
Q 2447 -78 1769 -78 
Q 1091 -78 675 323 
Q 259 725 259 1325 
Q 259 1772 486 2073 
Q 713 2375 1131 2484 
z
M 1019 3438 
Q 1019 3113 1228 2906 
Q 1438 2700 1772 2700 
Q 2097 2700 2305 2904 
Q 2513 3109 2513 3406 
Q 2513 3716 2298 3927 
Q 2084 4138 1766 4138 
Q 1444 4138 1231 3931 
Q 1019 3725 1019 3438 
z
M 838 1322 
Q 838 1081 952 856 
Q 1066 631 1291 507 
Q 1516 384 1775 384 
Q 2178 384 2440 643 
Q 2703 903 2703 1303 
Q 2703 1709 2433 1975 
Q 2163 2241 1756 2241 
Q 1359 2241 1098 1978 
Q 838 1716 838 1322 
z
" transform="scale(0.015625)"/>
       </defs>
       <use xlink:href="#ArialMT-38"/>
      </g>
     </g>
    </g>
    <g id="ytick_6">
     <g id="line2d_27">
      <path d="M 38.77625 155.809854 
L 562.52375 155.809854 
" clip-path="url(#pbeee3090d3)" style="fill: none; stroke: #ffffff; stroke-opacity: 0.3; stroke-width: 0.8; stroke-linecap: round"/>
     </g>
     <g id="line2d_28"/>
     <g id="text_15">
      <!-- 10 -->
      <g style="fill: #262626" transform="translate(24.154375 159.38876) scale(0.1 -0.1)">
       <use xlink:href="#ArialMT-31"/>
       <use xlink:href="#ArialMT-30" transform="translate(55.615234 0)"/>
      </g>
     </g>
    </g>
    <g id="ytick_7">
     <g id="line2d_29">
      <path d="M 38.77625 109.354325 
L 562.52375 109.354325 
" clip-path="url(#pbeee3090d3)" style="fill: none; stroke: #ffffff; stroke-opacity: 0.3; stroke-width: 0.8; stroke-linecap: round"/>
     </g>
     <g id="line2d_30"/>
     <g id="text_16">
      <!-- 12 -->
      <g style="fill: #262626" transform="translate(24.154375 112.933231) scale(0.1 -0.1)">
       <use xlink:href="#ArialMT-31"/>
       <use xlink:href="#ArialMT-32" transform="translate(55.615234 0)"/>
      </g>
     </g>
    </g>
    <g id="ytick_8">
     <g id="line2d_31">
      <path d="M 38.77625 62.898796 
L 562.52375 62.898796 
" clip-path="url(#pbeee3090d3)" style="fill: none; stroke: #ffffff; stroke-opacity: 0.3; stroke-width: 0.8; stroke-linecap: round"/>
     </g>
     <g id="line2d_32"/>
     <g id="text_17">
      <!-- 14 -->
      <g style="fill: #262626" transform="translate(24.154375 66.477702) scale(0.1 -0.1)">
       <use xlink:href="#ArialMT-31"/>
       <use xlink:href="#ArialMT-34" transform="translate(55.615234 0)"/>
      </g>
     </g>
    </g>
    <g id="text_18">
     <!-- Speedup Factor -->
     <g style="fill: #262626" transform="translate(17.391562 259.360156) rotate(-90) scale(0.14 -0.14)">
      <defs>
       <path id="Arial-BoldMT-70" d="M 434 3319 
L 1253 3319 
L 1253 2831 
Q 1413 3081 1684 3237 
Q 1956 3394 2288 3394 
Q 2866 3394 3269 2941 
Q 3672 2488 3672 1678 
Q 3672 847 3265 386 
Q 2859 -75 2281 -75 
Q 2006 -75 1782 34 
Q 1559 144 1313 409 
L 1313 -1263 
L 434 -1263 
L 434 3319 
z
M 1303 1716 
Q 1303 1156 1525 889 
Q 1747 622 2066 622 
Q 2372 622 2575 867 
Q 2778 1113 2778 1672 
Q 2778 2194 2568 2447 
Q 2359 2700 2050 2700 
Q 1728 2700 1515 2451 
Q 1303 2203 1303 1716 
z
" transform="scale(0.015625)"/>
       <path id="Arial-BoldMT-64" d="M 3503 0 
L 2688 0 
L 2688 488 
Q 2484 203 2207 64 
Q 1931 -75 1650 -75 
Q 1078 -75 670 386 
Q 263 847 263 1672 
Q 263 2516 659 2955 
Q 1056 3394 1663 3394 
Q 2219 3394 2625 2931 
L 2625 4581 
L 3503 4581 
L 3503 0 
z
M 1159 1731 
Q 1159 1200 1306 963 
Q 1519 619 1900 619 
Q 2203 619 2415 876 
Q 2628 1134 2628 1647 
Q 2628 2219 2422 2470 
Q 2216 2722 1894 2722 
Q 1581 2722 1370 2473 
Q 1159 2225 1159 1731 
z
" transform="scale(0.015625)"/>
       <path id="Arial-BoldMT-46" d="M 472 0 
L 472 4581 
L 3613 4581 
L 3613 3806 
L 1397 3806 
L 1397 2722 
L 3309 2722 
L 3309 1947 
L 1397 1947 
L 1397 0 
L 472 0 
z
" transform="scale(0.015625)"/>
       <path id="Arial-BoldMT-61" d="M 1116 2306 
L 319 2450 
Q 453 2931 781 3162 
Q 1109 3394 1756 3394 
Q 2344 3394 2631 3255 
Q 2919 3116 3036 2902 
Q 3153 2688 3153 2116 
L 3144 1091 
Q 3144 653 3186 445 
Q 3228 238 3344 0 
L 2475 0 
Q 2441 88 2391 259 
Q 2369 338 2359 363 
Q 2134 144 1878 34 
Q 1622 -75 1331 -75 
Q 819 -75 523 203 
Q 228 481 228 906 
Q 228 1188 362 1408 
Q 497 1628 739 1745 
Q 981 1863 1438 1950 
Q 2053 2066 2291 2166 
L 2291 2253 
Q 2291 2506 2166 2614 
Q 2041 2722 1694 2722 
Q 1459 2722 1328 2630 
Q 1197 2538 1116 2306 
z
M 2291 1594 
Q 2122 1538 1756 1459 
Q 1391 1381 1278 1306 
Q 1106 1184 1106 997 
Q 1106 813 1243 678 
Q 1381 544 1594 544 
Q 1831 544 2047 700 
Q 2206 819 2256 991 
Q 2291 1103 2291 1419 
L 2291 1594 
z
" transform="scale(0.015625)"/>
       <path id="Arial-BoldMT-63" d="M 3353 2338 
L 2488 2181 
Q 2444 2441 2289 2572 
Q 2134 2703 1888 2703 
Q 1559 2703 1364 2476 
Q 1169 2250 1169 1719 
Q 1169 1128 1367 884 
Q 1566 641 1900 641 
Q 2150 641 2309 783 
Q 2469 925 2534 1272 
L 3397 1125 
Q 3263 531 2881 228 
Q 2500 -75 1859 -75 
Q 1131 -75 698 384 
Q 266 844 266 1656 
Q 266 2478 700 2936 
Q 1134 3394 1875 3394 
Q 2481 3394 2839 3133 
Q 3197 2872 3353 2338 
z
" transform="scale(0.015625)"/>
       <path id="Arial-BoldMT-6f" d="M 256 1706 
Q 256 2144 472 2553 
Q 688 2963 1083 3178 
Q 1478 3394 1966 3394 
Q 2719 3394 3200 2905 
Q 3681 2416 3681 1669 
Q 3681 916 3195 420 
Q 2709 -75 1972 -75 
Q 1516 -75 1102 131 
Q 688 338 472 736 
Q 256 1134 256 1706 
z
M 1156 1659 
Q 1156 1166 1390 903 
Q 1625 641 1969 641 
Q 2313 641 2545 903 
Q 2778 1166 2778 1666 
Q 2778 2153 2545 2415 
Q 2313 2678 1969 2678 
Q 1625 2678 1390 2415 
Q 1156 2153 1156 1659 
z
" transform="scale(0.015625)"/>
       <path id="Arial-BoldMT-72" d="M 1300 0 
L 422 0 
L 422 3319 
L 1238 3319 
L 1238 2847 
Q 1447 3181 1614 3287 
Q 1781 3394 1994 3394 
Q 2294 3394 2572 3228 
L 2300 2463 
Q 2078 2606 1888 2606 
Q 1703 2606 1575 2504 
Q 1447 2403 1373 2137 
Q 1300 1872 1300 1025 
L 1300 0 
z
" transform="scale(0.015625)"/>
      </defs>
      <use xlink:href="#Arial-BoldMT-53"/>
      <use xlink:href="#Arial-BoldMT-70" transform="translate(66.699219 0)"/>
      <use xlink:href="#Arial-BoldMT-65" transform="translate(127.783203 0)"/>
      <use xlink:href="#Arial-BoldMT-65" transform="translate(183.398438 0)"/>
      <use xlink:href="#Arial-BoldMT-64" transform="translate(239.013672 0)"/>
      <use xlink:href="#Arial-BoldMT-75" transform="translate(300.097656 0)"/>
      <use xlink:href="#Arial-BoldMT-70" transform="translate(361.181641 0)"/>
      <use xlink:href="#Arial-BoldMT-20" transform="translate(422.265625 0)"/>
      <use xlink:href="#Arial-BoldMT-46" transform="translate(450.048828 0)"/>
      <use xlink:href="#Arial-BoldMT-61" transform="translate(511.132812 0)"/>
      <use xlink:href="#Arial-BoldMT-63" transform="translate(566.748047 0)"/>
      <use xlink:href="#Arial-BoldMT-74" transform="translate(622.363281 0)"/>
      <use xlink:href="#Arial-BoldMT-6f" transform="translate(655.664062 0)"/>
      <use xlink:href="#Arial-BoldMT-72" transform="translate(716.748047 0)"/>
     </g>
    </g>
   </g>
   <g id="patch_3">
    <path d="M 62.582955 388.0875 
L 111.41722 388.0875 
L 111.41722 303.383476 
L 62.582955 303.383476 
z
" clip-path="url(#pbeee3090d3)" style="fill: #2e8b57; opacity: 0.8; stroke: #000000; stroke-width: 1.2; stroke-linejoin: miter"/>
   </g>
   <g id="patch_4">
    <path d="M 123.625787 388.0875 
L 172.460052 388.0875 
L 172.460052 304.209676 
L 123.625787 304.209676 
z
" clip-path="url(#pbeee3090d3)" style="fill: #4169e1; opacity: 0.8; stroke: #000000; stroke-width: 1.2; stroke-linejoin: miter"/>
   </g>
   <g id="patch_5">
    <path d="M 184.668619 388.0875 
L 233.502885 388.0875 
L 233.502885 322.649638 
L 184.668619 322.649638 
z
" clip-path="url(#pbeee3090d3)" style="fill: #ff6347; opacity: 0.8; stroke: #000000; stroke-width: 1.2; stroke-linejoin: miter"/>
   </g>
   <g id="patch_6">
    <path d="M 245.711451 388.0875 
L 294.545717 388.0875 
L 294.545717 342.732118 
L 245.711451 342.732118 
z
" clip-path="url(#pbeee3090d3)" style="fill: #9932cc; opacity: 0.8; stroke: #000000; stroke-width: 1.2; stroke-linejoin: miter"/>
   </g>
   <g id="patch_7">
    <path d="M 306.754283 388.0875 
L 355.588549 388.0875 
L 355.588549 315.764152 
L 306.754283 315.764152 
z
" clip-path="url(#pbeee3090d3)" style="fill: #2e8b57; opacity: 0.8; stroke: #000000; stroke-width: 1.2; stroke-linejoin: miter"/>
   </g>
   <g id="patch_8">
    <path d="M 367.797115 388.0875 
L 416.631381 388.0875 
L 416.631381 189.645632 
L 367.797115 189.645632 
z
" clip-path="url(#pbeee3090d3)" style="fill: #4169e1; opacity: 0.8; stroke: #000000; stroke-width: 1.2; stroke-linejoin: miter"/>
   </g>
   <g id="patch_9">
    <path d="M 428.839948 388.0875 
L 477.674213 388.0875 
L 477.674213 146.187389 
L 428.839948 146.187389 
z
" clip-path="url(#pbeee3090d3)" style="fill: #ff6347; opacity: 0.8; stroke: #000000; stroke-width: 1.2; stroke-linejoin: miter"/>
   </g>
   <g id="patch_10">
    <path d="M 489.88278 388.0875 
L 538.717045 388.0875 
L 538.717045 85.3875 
L 489.88278 85.3875 
z
" clip-path="url(#pbeee3090d3)" style="fill: #9932cc; opacity: 0.8; stroke: #000000; stroke-width: 1.2; stroke-linejoin: miter"/>
   </g>
   <g id="line2d_33">
    <path d="M 38.77625 364.859735 
L 562.52375 364.859735 
" clip-path="url(#pbeee3090d3)" style="fill: none; stroke-dasharray: 5.55,2.4; stroke-dashoffset: 0; stroke: #ff0000; stroke-opacity: 0.7; stroke-width: 1.5"/>
   </g>
   <g id="patch_11">
    <path d="M 38.77625 388.0875 
L 38.77625 24.8475 
" style="fill: none"/>
   </g>
   <g id="patch_12">
    <path d="M 562.52375 388.0875 
L 562.52375 24.8475 
" style="fill: none"/>
   </g>
   <g id="patch_13">
    <path d="M 38.77625 388.0875 
L 562.52375 388.0875 
" style="fill: none"/>
   </g>
   <g id="patch_14">
    <path d="M 38.77625 24.8475 
L 562.52375 24.8475 
" style="fill: none"/>
   </g>
   <g id="text_19">
    <!-- 3.6x -->
    <g style="fill: #262626" transform="translate(75.323525 298.692574) scale(0.12 -0.12)">
     <defs>
      <path id="Arial-BoldMT-33" d="M 241 1216 
L 1091 1319 
Q 1131 994 1309 822 
Q 1488 650 1741 650 
Q 2013 650 2198 856 
Q 2384 1063 2384 1413 
Q 2384 1744 2206 1937 
Q 2028 2131 1772 2131 
Q 1603 2131 1369 2066 
L 1466 2781 
Q 1822 2772 2009 2936 
Q 2197 3100 2197 3372 
Q 2197 3603 2059 3740 
Q 1922 3878 1694 3878 
Q 1469 3878 1309 3722 
Q 1150 3566 1116 3266 
L 306 3403 
Q 391 3819 561 4067 
Q 731 4316 1036 4458 
Q 1341 4600 1719 4600 
Q 2366 4600 2756 4188 
Q 3078 3850 3078 3425 
Q 3078 2822 2419 2463 
Q 2813 2378 3048 2084 
Q 3284 1791 3284 1375 
Q 3284 772 2843 347 
Q 2403 -78 1747 -78 
Q 1125 -78 715 280 
Q 306 638 241 1216 
z
" transform="scale(0.015625)"/>
      <path id="Arial-BoldMT-2e" d="M 459 0 
L 459 878 
L 1338 878 
L 1338 0 
L 459 0 
z
" transform="scale(0.015625)"/>
      <path id="Arial-BoldMT-36" d="M 3247 3459 
L 2397 3366 
Q 2366 3628 2234 3753 
Q 2103 3878 1894 3878 
Q 1616 3878 1423 3628 
Q 1231 3378 1181 2588 
Q 1509 2975 1997 2975 
Q 2547 2975 2939 2556 
Q 3331 2138 3331 1475 
Q 3331 772 2918 347 
Q 2506 -78 1859 -78 
Q 1166 -78 719 461 
Q 272 1000 272 2228 
Q 272 3488 737 4044 
Q 1203 4600 1947 4600 
Q 2469 4600 2811 4308 
Q 3153 4016 3247 3459 
z
M 1256 1544 
Q 1256 1116 1453 883 
Q 1650 650 1903 650 
Q 2147 650 2309 840 
Q 2472 1031 2472 1466 
Q 2472 1913 2297 2120 
Q 2122 2328 1859 2328 
Q 1606 2328 1431 2129 
Q 1256 1931 1256 1544 
z
" transform="scale(0.015625)"/>
      <path id="Arial-BoldMT-78" d="M 38 0 
L 1234 1709 
L 88 3319 
L 1159 3319 
L 1747 2406 
L 2366 3319 
L 3397 3319 
L 2272 1747 
L 3500 0 
L 2422 0 
L 1747 1028 
L 1066 0 
L 38 0 
z
" transform="scale(0.015625)"/>
     </defs>
     <use xlink:href="#Arial-BoldMT-33"/>
     <use xlink:href="#Arial-BoldMT-2e" transform="translate(55.615234 0)"/>
     <use xlink:href="#Arial-BoldMT-36" transform="translate(83.398438 0)"/>
     <use xlink:href="#Arial-BoldMT-78" transform="translate(139.013672 0)"/>
    </g>
   </g>
   <g id="text_20">
    <!-- 3.6x -->
    <g style="fill: #262626" transform="translate(136.366357 299.518774) scale(0.12 -0.12)">
     <use xlink:href="#Arial-BoldMT-33"/>
     <use xlink:href="#Arial-BoldMT-2e" transform="translate(55.615234 0)"/>
     <use xlink:href="#Arial-BoldMT-36" transform="translate(83.398438 0)"/>
     <use xlink:href="#Arial-BoldMT-78" transform="translate(139.013672 0)"/>
    </g>
   </g>
   <g id="text_21">
    <!-- 2.8x -->
    <g style="fill: #262626" transform="translate(197.409189 317.958736) scale(0.12 -0.12)">
     <defs>
      <path id="Arial-BoldMT-32" d="M 3238 816 
L 3238 0 
L 159 0 
Q 209 463 459 877 
Q 709 1291 1447 1975 
Q 2041 2528 2175 2725 
Q 2356 2997 2356 3263 
Q 2356 3556 2198 3714 
Q 2041 3872 1763 3872 
Q 1488 3872 1325 3706 
Q 1163 3541 1138 3156 
L 263 3244 
Q 341 3969 753 4284 
Q 1166 4600 1784 4600 
Q 2463 4600 2850 4234 
Q 3238 3869 3238 3325 
Q 3238 3016 3127 2736 
Q 3016 2456 2775 2150 
Q 2616 1947 2200 1565 
Q 1784 1184 1673 1059 
Q 1563 934 1494 816 
L 3238 816 
z
" transform="scale(0.015625)"/>
      <path id="Arial-BoldMT-38" d="M 1025 2472 
Q 684 2616 529 2867 
Q 375 3119 375 3419 
Q 375 3931 733 4265 
Q 1091 4600 1750 4600 
Q 2403 4600 2764 4265 
Q 3125 3931 3125 3419 
Q 3125 3100 2959 2851 
Q 2794 2603 2494 2472 
Q 2875 2319 3073 2025 
Q 3272 1731 3272 1347 
Q 3272 713 2867 316 
Q 2463 -81 1791 -81 
Q 1166 -81 750 247 
Q 259 634 259 1309 
Q 259 1681 443 1992 
Q 628 2303 1025 2472 
z
M 1206 3356 
Q 1206 3094 1354 2947 
Q 1503 2800 1750 2800 
Q 2000 2800 2150 2948 
Q 2300 3097 2300 3359 
Q 2300 3606 2151 3754 
Q 2003 3903 1759 3903 
Q 1506 3903 1356 3753 
Q 1206 3603 1206 3356 
z
M 1125 1394 
Q 1125 1031 1311 828 
Q 1497 625 1775 625 
Q 2047 625 2225 820 
Q 2403 1016 2403 1384 
Q 2403 1706 2222 1901 
Q 2041 2097 1763 2097 
Q 1441 2097 1283 1875 
Q 1125 1653 1125 1394 
z
" transform="scale(0.015625)"/>
     </defs>
     <use xlink:href="#Arial-BoldMT-32"/>
     <use xlink:href="#Arial-BoldMT-2e" transform="translate(55.615234 0)"/>
     <use xlink:href="#Arial-BoldMT-38" transform="translate(83.398438 0)"/>
     <use xlink:href="#Arial-BoldMT-78" transform="translate(139.013672 0)"/>
    </g>
   </g>
   <g id="text_22">
    <!-- 2.0x -->
    <g style="fill: #262626" transform="translate(258.452021 338.041216) scale(0.12 -0.12)">
     <defs>
      <path id="Arial-BoldMT-30" d="M 1756 4600 
Q 2422 4600 2797 4125 
Q 3244 3563 3244 2259 
Q 3244 959 2794 391 
Q 2422 -78 1756 -78 
Q 1088 -78 678 436 
Q 269 950 269 2269 
Q 269 3563 719 4131 
Q 1091 4600 1756 4600 
z
M 1756 3872 
Q 1597 3872 1472 3770 
Q 1347 3669 1278 3406 
Q 1188 3066 1188 2259 
Q 1188 1453 1269 1151 
Q 1350 850 1473 750 
Q 1597 650 1756 650 
Q 1916 650 2041 751 
Q 2166 853 2234 1116 
Q 2325 1453 2325 2259 
Q 2325 3066 2244 3367 
Q 2163 3669 2039 3770 
Q 1916 3872 1756 3872 
z
" transform="scale(0.015625)"/>
     </defs>
     <use xlink:href="#Arial-BoldMT-32"/>
     <use xlink:href="#Arial-BoldMT-2e" transform="translate(55.615234 0)"/>
     <use xlink:href="#Arial-BoldMT-30" transform="translate(83.398438 0)"/>
     <use xlink:href="#Arial-BoldMT-78" transform="translate(139.013672 0)"/>
    </g>
   </g>
   <g id="text_23">
    <!-- 3.1x -->
    <g style="fill: #262626" transform="translate(319.494854 311.073251) scale(0.12 -0.12)">
     <defs>
      <path id="Arial-BoldMT-31" d="M 2519 0 
L 1641 0 
L 1641 3309 
Q 1159 2859 506 2644 
L 506 3441 
Q 850 3553 1253 3867 
Q 1656 4181 1806 4600 
L 2519 4600 
L 2519 0 
z
" transform="scale(0.015625)"/>
     </defs>
     <use xlink:href="#Arial-BoldMT-33"/>
     <use xlink:href="#Arial-BoldMT-2e" transform="translate(55.615234 0)"/>
     <use xlink:href="#Arial-BoldMT-31" transform="translate(83.398438 0)"/>
     <use xlink:href="#Arial-BoldMT-78" transform="translate(139.013672 0)"/>
    </g>
   </g>
   <g id="text_24">
    <!-- 8.5x -->
    <g style="fill: #262626" transform="translate(380.537686 184.954731) scale(0.12 -0.12)">
     <defs>
      <path id="Arial-BoldMT-35" d="M 284 1178 
L 1159 1269 
Q 1197 972 1381 798 
Q 1566 625 1806 625 
Q 2081 625 2272 848 
Q 2463 1072 2463 1522 
Q 2463 1944 2273 2155 
Q 2084 2366 1781 2366 
Q 1403 2366 1103 2031 
L 391 2134 
L 841 4519 
L 3163 4519 
L 3163 3697 
L 1506 3697 
L 1369 2919 
Q 1663 3066 1969 3066 
Q 2553 3066 2959 2641 
Q 3366 2216 3366 1538 
Q 3366 972 3038 528 
Q 2591 -78 1797 -78 
Q 1163 -78 763 262 
Q 363 603 284 1178 
z
" transform="scale(0.015625)"/>
     </defs>
     <use xlink:href="#Arial-BoldMT-38"/>
     <use xlink:href="#Arial-BoldMT-2e" transform="translate(55.615234 0)"/>
     <use xlink:href="#Arial-BoldMT-35" transform="translate(83.398438 0)"/>
     <use xlink:href="#Arial-BoldMT-78" transform="translate(139.013672 0)"/>
    </g>
   </g>
   <g id="text_25">
    <!-- 10.4x -->
    <g style="fill: #262626" transform="translate(438.243955 141.496487) scale(0.12 -0.12)">
     <defs>
      <path id="Arial-BoldMT-34" d="M 1994 0 
L 1994 922 
L 119 922 
L 119 1691 
L 2106 4600 
L 2844 4600 
L 2844 1694 
L 3413 1694 
L 3413 922 
L 2844 922 
L 2844 0 
L 1994 0 
z
M 1994 1694 
L 1994 3259 
L 941 1694 
L 1994 1694 
z
" transform="scale(0.015625)"/>
     </defs>
     <use xlink:href="#Arial-BoldMT-31"/>
     <use xlink:href="#Arial-BoldMT-30" transform="translate(55.615234 0)"/>
     <use xlink:href="#Arial-BoldMT-2e" transform="translate(111.230469 0)"/>
     <use xlink:href="#Arial-BoldMT-34" transform="translate(139.013672 0)"/>
     <use xlink:href="#Arial-BoldMT-78" transform="translate(194.628906 0)"/>
    </g>
   </g>
   <g id="text_26">
    <!-- 13.0x -->
    <g style="fill: #262626" transform="translate(499.286788 80.696599) scale(0.12 -0.12)">
     <use xlink:href="#Arial-BoldMT-31"/>
     <use xlink:href="#Arial-BoldMT-33" transform="translate(55.615234 0)"/>
     <use xlink:href="#Arial-BoldMT-2e" transform="translate(111.230469 0)"/>
     <use xlink:href="#Arial-BoldMT-30" transform="translate(139.013672 0)"/>
     <use xlink:href="#Arial-BoldMT-78" transform="translate(194.628906 0)"/>
    </g>
   </g>
   <g id="text_27">
    <!-- ðŸš€ Fastest vs pytest - Performance Speedup -->
    <g style="fill: #262626" transform="translate(135.4975 18.8475) scale(0.16 -0.16)">
     <defs>
      <path id="Arial-BoldMT-1f680" d="M 800 0 
L 800 4000 
L 4000 4000 
L 4000 0 
L 800 0 
z
M 900 100 
L 3900 100 
L 3900 3900 
L 900 3900 
L 900 100 
z
" transform="scale(0.015625)"/>
      <path id="Arial-BoldMT-76" d="M 1372 0 
L 34 3319 
L 956 3319 
L 1581 1625 
L 1763 1059 
Q 1834 1275 1853 1344 
Q 1897 1484 1947 1625 
L 2578 3319 
L 3481 3319 
L 2163 0 
L 1372 0 
z
" transform="scale(0.015625)"/>
      <path id="Arial-BoldMT-79" d="M 44 3319 
L 978 3319 
L 1772 963 
L 2547 3319 
L 3456 3319 
L 2284 125 
L 2075 -453 
Q 1959 -744 1854 -897 
Q 1750 -1050 1614 -1145 
Q 1478 -1241 1279 -1294 
Q 1081 -1347 831 -1347 
Q 578 -1347 334 -1294 
L 256 -606 
Q 463 -647 628 -647 
Q 934 -647 1081 -467 
Q 1228 -288 1306 -9 
L 44 3319 
z
" transform="scale(0.015625)"/>
      <path id="Arial-BoldMT-2d" d="M 359 1222 
L 359 2100 
L 2084 2100 
L 2084 1222 
L 359 1222 
z
" transform="scale(0.015625)"/>
      <path id="Arial-BoldMT-50" d="M 466 0 
L 466 4581 
L 1950 4581 
Q 2794 4581 3050 4513 
Q 3444 4409 3709 4064 
Q 3975 3719 3975 3172 
Q 3975 2750 3822 2462 
Q 3669 2175 3433 2011 
Q 3197 1847 2953 1794 
Q 2622 1728 1994 1728 
L 1391 1728 
L 1391 0 
L 466 0 
z
M 1391 3806 
L 1391 2506 
L 1897 2506 
Q 2444 2506 2628 2578 
Q 2813 2650 2917 2803 
Q 3022 2956 3022 3159 
Q 3022 3409 2875 3571 
Q 2728 3734 2503 3775 
Q 2338 3806 1838 3806 
L 1391 3806 
z
" transform="scale(0.015625)"/>
      <path id="Arial-BoldMT-66" d="M 75 3319 
L 563 3319 
L 563 3569 
Q 563 3988 652 4194 
Q 741 4400 980 4529 
Q 1219 4659 1584 4659 
Q 1959 4659 2319 4547 
L 2200 3934 
Q 1991 3984 1797 3984 
Q 1606 3984 1523 3895 
Q 1441 3806 1441 3553 
L 1441 3319 
L 2097 3319 
L 2097 2628 
L 1441 2628 
L 1441 0 
L 563 0 
L 563 2628 
L 75 2628 
L 75 3319 
z
" transform="scale(0.015625)"/>
      <path id="Arial-BoldMT-6d" d="M 394 3319 
L 1203 3319 
L 1203 2866 
Q 1638 3394 2238 3394 
Q 2556 3394 2790 3262 
Q 3025 3131 3175 2866 
Q 3394 3131 3647 3262 
Q 3900 3394 4188 3394 
Q 4553 3394 4806 3245 
Q 5059 3097 5184 2809 
Q 5275 2597 5275 2122 
L 5275 0 
L 4397 0 
L 4397 1897 
Q 4397 2391 4306 2534 
Q 4184 2722 3931 2722 
Q 3747 2722 3584 2609 
Q 3422 2497 3350 2280 
Q 3278 2063 3278 1594 
L 3278 0 
L 2400 0 
L 2400 1819 
Q 2400 2303 2353 2443 
Q 2306 2584 2207 2653 
Q 2109 2722 1941 2722 
Q 1738 2722 1575 2612 
Q 1413 2503 1342 2297 
Q 1272 2091 1272 1613 
L 1272 0 
L 394 0 
L 394 3319 
z
" transform="scale(0.015625)"/>
      <path id="Arial-BoldMT-6e" d="M 3478 0 
L 2600 0 
L 2600 1694 
Q 2600 2231 2544 2389 
Q 2488 2547 2361 2634 
Q 2234 2722 2056 2722 
Q 1828 2722 1647 2597 
Q 1466 2472 1398 2265 
Q 1331 2059 1331 1503 
L 1331 0 
L 453 0 
L 453 3319 
L 1269 3319 
L 1269 2831 
Q 1703 3394 2363 3394 
Q 2653 3394 2893 3289 
Q 3134 3184 3257 3021 
Q 3381 2859 3429 2653 
Q 3478 2447 3478 2063 
L 3478 0 
z
" transform="scale(0.015625)"/>
     </defs>
     <use xlink:href="#Arial-BoldMT-1f680"/>
     <use xlink:href="#Arial-BoldMT-20" transform="translate(75 0)"/>
     <use xlink:href="#Arial-BoldMT-46" transform="translate(102.783203 0)"/>
     <use xlink:href="#Arial-BoldMT-61" transform="translate(163.867188 0)"/>
     <use xlink:href="#Arial-BoldMT-73" transform="translate(219.482422 0)"/>
     <use xlink:href="#Arial-BoldMT-74" transform="translate(275.097656 0)"/>
     <use xlink:href="#Arial-BoldMT-65" transform="translate(308.398438 0)"/>
     <use xlink:href="#Arial-BoldMT-73" transform="translate(364.013672 0)"/>
     <use xlink:href="#Arial-BoldMT-74" transform="translate(419.628906 0)"/>
     <use xlink:href="#Arial-BoldMT-20" transform="translate(452.929688 0)"/>
     <use xlink:href="#Arial-BoldMT-76" transform="translate(480.712891 0)"/>
     <use xlink:href="#Arial-BoldMT-73" transform="translate(536.328125 0)"/>
     <use xlink:href="#Arial-BoldMT-20" transform="translate(591.943359 0)"/>
     <use xlink:href="#Arial-BoldMT-70" transform="translate(619.726562 0)"/>
     <use xlink:href="#Arial-BoldMT-79" transform="translate(680.810547 0)"/>
     <use xlink:href="#Arial-BoldMT-74" transform="translate(736.425781 0)"/>
     <use xlink:href="#Arial-BoldMT-65" transform="translate(769.726562 0)"/>
     <use xlink:href="#Arial-BoldMT-73" transform="translate(825.341797 0)"/>
     <use xlink:href="#Arial-BoldMT-74" transform="translate(880.957031 0)"/>
     <use xlink:href="#Arial-BoldMT-20" transform="translate(914.257812 0)"/>
     <use xlink:href="#Arial-BoldMT-2d" transform="translate(942.041016 0)"/>
     <use xlink:href="#Arial-BoldMT-20" transform="translate(975.341797 0)"/>
     <use xlink:href="#Arial-BoldMT-50" transform="translate(1003.125 0)"/>
     <use xlink:href="#Arial-BoldMT-65" transform="translate(1069.824219 0)"/>
     <use xlink:href="#Arial-BoldMT-72" transform="translate(1125.439453 0)"/>
     <use xlink:href="#Arial-BoldMT-66" transform="translate(1164.355469 0)"/>
     <use xlink:href="#Arial-BoldMT-6f" transform="translate(1197.65625 0)"/>
     <use xlink:href="#Arial-BoldMT-72" transform="translate(1258.740234 0)"/>
     <use xlink:href="#Arial-BoldMT-6d" transform="translate(1297.65625 0)"/>
     <use xlink:href="#Arial-BoldMT-61" transform="translate(1386.572266 0)"/>
     <use xlink:href="#Arial-BoldMT-6e" transform="translate(1442.1875 0)"/>
     <use xlink:href="#Arial-BoldMT-63" transform="translate(1503.271484 0)"/>
     <use xlink:href="#Arial-BoldMT-65" transform="translate(1558.886719 0)"/>
     <use xlink:href="#Arial-BoldMT-20" transform="translate(1614.501953 0)"/>
     <use xlink:href="#Arial-BoldMT-53" transform="translate(1642.285156 0)"/>
     <use xlink:href="#Arial-BoldMT-70" transform="translate(1708.984375 0)"/>
     <use xlink:href="#Arial-BoldMT-65" transform="translate(1770.068359 0)"/>
     <use xlink:href="#Arial-BoldMT-65" transform="translate(1825.683594 0)"/>
     <use xlink:href="#Arial-BoldMT-64" transform="translate(1881.298828 0)"/>
     <use xlink:href="#Arial-BoldMT-75" transform="translate(1942.382812 0)"/>
     <use xlink:href="#Arial-BoldMT-70" transform="translate(2003.466797 0)"/>
    </g>
   </g>
   <g id="legend_1">
    <g id="line2d_34">
     <path d="M 452.169062 37.505312 
L 462.169062 37.505312 
L 472.169062 37.505312 
" style="fill: none; stroke-dasharray: 5.55,2.4; stroke-dashoffset: 0; stroke: #ff0000; stroke-opacity: 0.7; stroke-width: 1.5"/>
    </g>
    <g id="text_28">
     <!-- No improvement -->
     <g style="fill: #262626" transform="translate(480.169062 41.005312) scale(0.1 -0.1)">
      <defs>
       <path id="ArialMT-4e" d="M 488 0 
L 488 4581 
L 1109 4581 
L 3516 984 
L 3516 4581 
L 4097 4581 
L 4097 0 
L 3475 0 
L 1069 3600 
L 1069 0 
L 488 0 
z
" transform="scale(0.015625)"/>
       <path id="ArialMT-6f" d="M 213 1659 
Q 213 2581 725 3025 
Q 1153 3394 1769 3394 
Q 2453 3394 2887 2945 
Q 3322 2497 3322 1706 
Q 3322 1066 3130 698 
Q 2938 331 2570 128 
Q 2203 -75 1769 -75 
Q 1072 -75 642 372 
Q 213 819 213 1659 
z
M 791 1659 
Q 791 1022 1069 705 
Q 1347 388 1769 388 
Q 2188 388 2466 706 
Q 2744 1025 2744 1678 
Q 2744 2294 2464 2611 
Q 2184 2928 1769 2928 
Q 1347 2928 1069 2612 
Q 791 2297 791 1659 
z
" transform="scale(0.015625)"/>
       <path id="ArialMT-69" d="M 425 3934 
L 425 4581 
L 988 4581 
L 988 3934 
L 425 3934 
z
M 425 0 
L 425 3319 
L 988 3319 
L 988 0 
L 425 0 
z
" transform="scale(0.015625)"/>
       <path id="ArialMT-6d" d="M 422 0 
L 422 3319 
L 925 3319 
L 925 2853 
Q 1081 3097 1340 3245 
Q 1600 3394 1931 3394 
Q 2300 3394 2536 3241 
Q 2772 3088 2869 2813 
Q 3263 3394 3894 3394 
Q 4388 3394 4653 3120 
Q 4919 2847 4919 2278 
L 4919 0 
L 4359 0 
L 4359 2091 
Q 4359 2428 4304 2576 
Q 4250 2725 4106 2815 
Q 3963 2906 3769 2906 
Q 3419 2906 3187 2673 
Q 2956 2441 2956 1928 
L 2956 0 
L 2394 0 
L 2394 2156 
Q 2394 2531 2256 2718 
Q 2119 2906 1806 2906 
Q 1569 2906 1367 2781 
Q 1166 2656 1075 2415 
Q 984 2175 984 1722 
L 984 0 
L 422 0 
z
" transform="scale(0.015625)"/>
       <path id="ArialMT-70" d="M 422 -1272 
L 422 3319 
L 934 3319 
L 934 2888 
Q 1116 3141 1344 3267 
Q 1572 3394 1897 3394 
Q 2322 3394 2647 3175 
Q 2972 2956 3137 2557 
Q 3303 2159 3303 1684 
Q 3303 1175 3120 767 
Q 2938 359 2589 142 
Q 2241 -75 1856 -75 
Q 1575 -75 1351 44 
Q 1128 163 984 344 
L 984 -1272 
L 422 -1272 
z
M 931 1641 
Q 931 1000 1190 694 
Q 1450 388 1819 388 
Q 2194 388 2461 705 
Q 2728 1022 2728 1688 
Q 2728 2322 2467 2637 
Q 2206 2953 1844 2953 
Q 1484 2953 1207 2617 
Q 931 2281 931 1641 
z
" transform="scale(0.015625)"/>
       <path id="ArialMT-72" d="M 416 0 
L 416 3319 
L 922 3319 
L 922 2816 
Q 1116 3169 1280 3281 
Q 1444 3394 1641 3394 
Q 1925 3394 2219 3213 
L 2025 2691 
Q 1819 2813 1613 2813 
Q 1428 2813 1281 2702 
Q 1134 2591 1072 2394 
Q 978 2094 978 1738 
L 978 0 
L 416 0 
z
" transform="scale(0.015625)"/>
       <path id="ArialMT-76" d="M 1344 0 
L 81 3319 
L 675 3319 
L 1388 1331 
Q 1503 1009 1600 663 
Q 1675 925 1809 1294 
L 2547 3319 
L 3125 3319 
L 1869 0 
L 1344 0 
z
" transform="scale(0.015625)"/>
       <path id="ArialMT-6e" d="M 422 0 
L 422 3319 
L 928 3319 
L 928 2847 
Q 1294 3394 1984 3394 
Q 2284 3394 2536 3286 
Q 2788 3178 2913 3003 
Q 3038 2828 3088 2588 
Q 3119 2431 3119 2041 
L 3119 0 
L 2556 0 
L 2556 2019 
Q 2556 2363 2490 2533 
Q 2425 2703 2258 2804 
Q 2091 2906 1866 2906 
Q 1506 2906 1245 2678 
Q 984 2450 984 1813 
L 984 0 
L 422 0 
z
" transform="scale(0.015625)"/>
      </defs>
      <use xlink:href="#ArialMT-4e"/>
      <use xlink:href="#ArialMT-6f" transform="translate(72.216797 0)"/>
      <use xlink:href="#ArialMT-20" transform="translate(127.832031 0)"/>
      <use xlink:href="#ArialMT-69" transform="translate(155.615234 0)"/>
      <use xlink:href="#ArialMT-6d" transform="translate(177.832031 0)"/>
      <use xlink:href="#ArialMT-70" transform="translate(261.132812 0)"/>
      <use xlink:href="#ArialMT-72" transform="translate(316.748047 0)"/>
      <use xlink:href="#ArialMT-6f" transform="translate(350.048828 0)"/>
      <use xlink:href="#ArialMT-76" transform="translate(405.664062 0)"/>
      <use xlink:href="#ArialMT-65" transform="translate(455.664062 0)"/>
      <use xlink:href="#ArialMT-6d" transform="translate(511.279297 0)"/>
      <use xlink:href="#ArialMT-65" transform="translate(594.580078 0)"/>
      <use xlink:href="#ArialMT-6e" transform="translate(650.195312 0)"/>
      <use xlink:href="#ArialMT-74" transform="translate(705.810547 0)"/>
     </g>
    </g>
   </g>
  </g>
  <g id="axes_2">
   <g id="patch_15">
    <path d="M 613.71875 388.0875 
L 1137.46625 388.0875 
L 1137.46625 24.8475 
L 613.71875 24.8475 
z
" style="fill: #eaeaf2"/>
   </g>
   <g id="matplotlib.axis_3">
    <g id="xtick_9">
     <g id="line2d_35">
      <path d="M 659.167913 388.0875 
L 659.167913 24.8475 
" clip-path="url(#p4ba02eaed4)" style="fill: none; stroke: #ffffff; stroke-opacity: 0.3; stroke-width: 0.8; stroke-linecap: round"/>
     </g>
     <g id="line2d_36"/>
     <g id="text_29">
      <!-- 10 tests -->
      <g style="fill: #262626" transform="translate(641.659319 398.745312) scale(0.1 -0.1)">
       <use xlink:href="#ArialMT-31"/>
       <use xlink:href="#ArialMT-30" transform="translate(55.615234 0)"/>
       <use xlink:href="#ArialMT-20" transform="translate(111.230469 0)"/>
       <use xlink:href="#ArialMT-74" transform="translate(139.013672 0)"/>
       <use xlink:href="#ArialMT-65" transform="translate(166.796875 0)"/>
       <use xlink:href="#ArialMT-73" transform="translate(222.412109 0)"/>
       <use xlink:href="#ArialMT-74" transform="translate(272.412109 0)"/>
       <use xlink:href="#ArialMT-73" transform="translate(300.195312 0)"/>
      </g>
     </g>
    </g>
    <g id="xtick_10">
     <g id="line2d_37">
      <path d="M 721.003509 388.0875 
L 721.003509 24.8475 
" clip-path="url(#p4ba02eaed4)" style="fill: none; stroke: #ffffff; stroke-opacity: 0.3; stroke-width: 0.8; stroke-linecap: round"/>
     </g>
     <g id="line2d_38"/>
     <g id="text_30">
      <!-- 20 tests -->
      <g style="fill: #262626" transform="translate(703.494916 398.745312) scale(0.1 -0.1)">
       <use xlink:href="#ArialMT-32"/>
       <use xlink:href="#ArialMT-30" transform="translate(55.615234 0)"/>
       <use xlink:href="#ArialMT-20" transform="translate(111.230469 0)"/>
       <use xlink:href="#ArialMT-74" transform="translate(139.013672 0)"/>
       <use xlink:href="#ArialMT-65" transform="translate(166.796875 0)"/>
       <use xlink:href="#ArialMT-73" transform="translate(222.412109 0)"/>
       <use xlink:href="#ArialMT-74" transform="translate(272.412109 0)"/>
       <use xlink:href="#ArialMT-73" transform="translate(300.195312 0)"/>
      </g>
     </g>
    </g>
    <g id="xtick_11">
     <g id="line2d_39">
      <path d="M 782.839106 388.0875 
L 782.839106 24.8475 
" clip-path="url(#p4ba02eaed4)" style="fill: none; stroke: #ffffff; stroke-opacity: 0.3; stroke-width: 0.8; stroke-linecap: round"/>
     </g>
     <g id="line2d_40"/>
     <g id="text_31">
      <!-- 50 tests -->
      <g style="fill: #262626" transform="translate(765.330512 398.745312) scale(0.1 -0.1)">
       <use xlink:href="#ArialMT-35"/>
       <use xlink:href="#ArialMT-30" transform="translate(55.615234 0)"/>
       <use xlink:href="#ArialMT-20" transform="translate(111.230469 0)"/>
       <use xlink:href="#ArialMT-74" transform="translate(139.013672 0)"/>
       <use xlink:href="#ArialMT-65" transform="translate(166.796875 0)"/>
       <use xlink:href="#ArialMT-73" transform="translate(222.412109 0)"/>
       <use xlink:href="#ArialMT-74" transform="translate(272.412109 0)"/>
       <use xlink:href="#ArialMT-73" transform="translate(300.195312 0)"/>
      </g>
     </g>
    </g>
    <g id="xtick_12">
     <g id="line2d_41">
      <path d="M 844.674702 388.0875 
L 844.674702 24.8475 
" clip-path="url(#p4ba02eaed4)" style="fill: none; stroke: #ffffff; stroke-opacity: 0.3; stroke-width: 0.8; stroke-linecap: round"/>
     </g>
     <g id="line2d_42"/>
     <g id="text_32">
      <!-- 100 tests -->
      <g style="fill: #262626" transform="translate(824.385639 398.745312) scale(0.1 -0.1)">
       <use xlink:href="#ArialMT-31"/>
       <use xlink:href="#ArialMT-30" transform="translate(55.615234 0)"/>
       <use xlink:href="#ArialMT-30" transform="translate(111.230469 0)"/>
       <use xlink:href="#ArialMT-20" transform="translate(166.845703 0)"/>
       <use xlink:href="#ArialMT-74" transform="translate(194.628906 0)"/>
       <use xlink:href="#ArialMT-65" transform="translate(222.412109 0)"/>
       <use xlink:href="#ArialMT-73" transform="translate(278.027344 0)"/>
       <use xlink:href="#ArialMT-74" transform="translate(328.027344 0)"/>
       <use xlink:href="#ArialMT-73" transform="translate(355.810547 0)"/>
      </g>
     </g>
    </g>
    <g id="xtick_13">
     <g id="line2d_43">
      <path d="M 906.510298 388.0875 
L 906.510298 24.8475 
" clip-path="url(#p4ba02eaed4)" style="fill: none; stroke: #ffffff; stroke-opacity: 0.3; stroke-width: 0.8; stroke-linecap: round"/>
     </g>
     <g id="line2d_44"/>
     <g id="text_33">
      <!-- 200 tests -->
      <g style="fill: #262626" transform="translate(886.221236 398.745312) scale(0.1 -0.1)">
       <use xlink:href="#ArialMT-32"/>
       <use xlink:href="#ArialMT-30" transform="translate(55.615234 0)"/>
       <use xlink:href="#ArialMT-30" transform="translate(111.230469 0)"/>
       <use xlink:href="#ArialMT-20" transform="translate(166.845703 0)"/>
       <use xlink:href="#ArialMT-74" transform="translate(194.628906 0)"/>
       <use xlink:href="#ArialMT-65" transform="translate(222.412109 0)"/>
       <use xlink:href="#ArialMT-73" transform="translate(278.027344 0)"/>
       <use xlink:href="#ArialMT-74" transform="translate(328.027344 0)"/>
       <use xlink:href="#ArialMT-73" transform="translate(355.810547 0)"/>
      </g>
     </g>
    </g>
    <g id="xtick_14">
     <g id="line2d_45">
      <path d="M 968.345894 388.0875 
L 968.345894 24.8475 
" clip-path="url(#p4ba02eaed4)" style="fill: none; stroke: #ffffff; stroke-opacity: 0.3; stroke-width: 0.8; stroke-linecap: round"/>
     </g>
     <g id="line2d_46"/>
     <g id="text_34">
      <!-- 500 tests -->
      <g style="fill: #262626" transform="translate(948.056832 398.745312) scale(0.1 -0.1)">
       <use xlink:href="#ArialMT-35"/>
       <use xlink:href="#ArialMT-30" transform="translate(55.615234 0)"/>
       <use xlink:href="#ArialMT-30" transform="translate(111.230469 0)"/>
       <use xlink:href="#ArialMT-20" transform="translate(166.845703 0)"/>
       <use xlink:href="#ArialMT-74" transform="translate(194.628906 0)"/>
       <use xlink:href="#ArialMT-65" transform="translate(222.412109 0)"/>
       <use xlink:href="#ArialMT-73" transform="translate(278.027344 0)"/>
       <use xlink:href="#ArialMT-74" transform="translate(328.027344 0)"/>
       <use xlink:href="#ArialMT-73" transform="translate(355.810547 0)"/>
      </g>
     </g>
    </g>
    <g id="xtick_15">
     <g id="line2d_47">
      <path d="M 1030.181491 388.0875 
L 1030.181491 24.8475 
" clip-path="url(#p4ba02eaed4)" style="fill: none; stroke: #ffffff; stroke-opacity: 0.3; stroke-width: 0.8; stroke-linecap: round"/>
     </g>
     <g id="line2d_48"/>
     <g id="text_35">
      <!-- 1000 tests -->
      <g style="fill: #262626" transform="translate(1007.111959 398.745312) scale(0.1 -0.1)">
       <use xlink:href="#ArialMT-31"/>
       <use xlink:href="#ArialMT-30" transform="translate(55.615234 0)"/>
       <use xlink:href="#ArialMT-30" transform="translate(111.230469 0)"/>
       <use xlink:href="#ArialMT-30" transform="translate(166.845703 0)"/>
       <use xlink:href="#ArialMT-20" transform="translate(222.460938 0)"/>
       <use xlink:href="#ArialMT-74" transform="translate(250.244141 0)"/>
       <use xlink:href="#ArialMT-65" transform="translate(278.027344 0)"/>
       <use xlink:href="#ArialMT-73" transform="translate(333.642578 0)"/>
       <use xlink:href="#ArialMT-74" transform="translate(383.642578 0)"/>
       <use xlink:href="#ArialMT-73" transform="translate(411.425781 0)"/>
      </g>
     </g>
    </g>
    <g id="xtick_16">
     <g id="line2d_49">
      <path d="M 1092.017087 388.0875 
L 1092.017087 24.8475 
" clip-path="url(#p4ba02eaed4)" style="fill: none; stroke: #ffffff; stroke-opacity: 0.3; stroke-width: 0.8; stroke-linecap: round"/>
     </g>
     <g id="line2d_50"/>
     <g id="text_36">
      <!-- 2000 tests -->
      <g style="fill: #262626" transform="translate(1068.947556 398.745312) scale(0.1 -0.1)">
       <use xlink:href="#ArialMT-32"/>
       <use xlink:href="#ArialMT-30" transform="translate(55.615234 0)"/>
       <use xlink:href="#ArialMT-30" transform="translate(111.230469 0)"/>
       <use xlink:href="#ArialMT-30" transform="translate(166.845703 0)"/>
       <use xlink:href="#ArialMT-20" transform="translate(222.460938 0)"/>
       <use xlink:href="#ArialMT-74" transform="translate(250.244141 0)"/>
       <use xlink:href="#ArialMT-65" transform="translate(278.027344 0)"/>
       <use xlink:href="#ArialMT-73" transform="translate(333.642578 0)"/>
       <use xlink:href="#ArialMT-74" transform="translate(383.642578 0)"/>
       <use xlink:href="#ArialMT-73" transform="translate(411.425781 0)"/>
      </g>
     </g>
    </g>
    <g id="text_37">
     <!-- Test Suite Size -->
     <g style="fill: #262626" transform="translate(826.708437 414.75375) scale(0.14 -0.14)">
      <use xlink:href="#Arial-BoldMT-54"/>
      <use xlink:href="#Arial-BoldMT-65" transform="translate(53.708984 0)"/>
      <use xlink:href="#Arial-BoldMT-73" transform="translate(109.324219 0)"/>
      <use xlink:href="#Arial-BoldMT-74" transform="translate(164.939453 0)"/>
      <use xlink:href="#Arial-BoldMT-20" transform="translate(198.240234 0)"/>
      <use xlink:href="#Arial-BoldMT-53" transform="translate(226.023438 0)"/>
      <use xlink:href="#Arial-BoldMT-75" transform="translate(292.722656 0)"/>
      <use xlink:href="#Arial-BoldMT-69" transform="translate(353.806641 0)"/>
      <use xlink:href="#Arial-BoldMT-74" transform="translate(381.589844 0)"/>
      <use xlink:href="#Arial-BoldMT-65" transform="translate(414.890625 0)"/>
      <use xlink:href="#Arial-BoldMT-20" transform="translate(470.505859 0)"/>
      <use xlink:href="#Arial-BoldMT-53" transform="translate(498.289062 0)"/>
      <use xlink:href="#Arial-BoldMT-69" transform="translate(564.988281 0)"/>
      <use xlink:href="#Arial-BoldMT-7a" transform="translate(592.771484 0)"/>
      <use xlink:href="#Arial-BoldMT-65" transform="translate(642.771484 0)"/>
     </g>
    </g>
   </g>
   <g id="matplotlib.axis_4">
    <g id="ytick_9">
     <g id="line2d_51">
      <path d="M 613.71875 388.0875 
L 1137.46625 388.0875 
" clip-path="url(#p4ba02eaed4)" style="fill: none; stroke: #ffffff; stroke-opacity: 0.3; stroke-width: 0.8; stroke-linecap: round"/>
     </g>
     <g id="line2d_52"/>
     <g id="text_38">
      <!-- 0.00 -->
      <g style="fill: #262626" transform="translate(590.757812 391.666406) scale(0.1 -0.1)">
       <defs>
        <path id="ArialMT-2e" d="M 581 0 
L 581 641 
L 1222 641 
L 1222 0 
L 581 0 
z
" transform="scale(0.015625)"/>
       </defs>
       <use xlink:href="#ArialMT-30"/>
       <use xlink:href="#ArialMT-2e" transform="translate(55.615234 0)"/>
       <use xlink:href="#ArialMT-30" transform="translate(83.398438 0)"/>
       <use xlink:href="#ArialMT-30" transform="translate(139.013672 0)"/>
      </g>
     </g>
    </g>
    <g id="ytick_10">
     <g id="line2d_53">
      <path d="M 613.71875 346.115876 
L 1137.46625 346.115876 
" clip-path="url(#p4ba02eaed4)" style="fill: none; stroke: #ffffff; stroke-opacity: 0.3; stroke-width: 0.8; stroke-linecap: round"/>
     </g>
     <g id="line2d_54"/>
     <g id="text_39">
      <!-- 0.25 -->
      <g style="fill: #262626" transform="translate(590.757812 349.694782) scale(0.1 -0.1)">
       <use xlink:href="#ArialMT-30"/>
       <use xlink:href="#ArialMT-2e" transform="translate(55.615234 0)"/>
       <use xlink:href="#ArialMT-32" transform="translate(83.398438 0)"/>
       <use xlink:href="#ArialMT-35" transform="translate(139.013672 0)"/>
      </g>
     </g>
    </g>
    <g id="ytick_11">
     <g id="line2d_55">
      <path d="M 613.71875 304.144252 
L 1137.46625 304.144252 
" clip-path="url(#p4ba02eaed4)" style="fill: none; stroke: #ffffff; stroke-opacity: 0.3; stroke-width: 0.8; stroke-linecap: round"/>
     </g>
     <g id="line2d_56"/>
     <g id="text_40">
      <!-- 0.50 -->
      <g style="fill: #262626" transform="translate(590.757812 307.723158) scale(0.1 -0.1)">
       <use xlink:href="#ArialMT-30"/>
       <use xlink:href="#ArialMT-2e" transform="translate(55.615234 0)"/>
       <use xlink:href="#ArialMT-35" transform="translate(83.398438 0)"/>
       <use xlink:href="#ArialMT-30" transform="translate(139.013672 0)"/>
      </g>
     </g>
    </g>
    <g id="ytick_12">
     <g id="line2d_57">
      <path d="M 613.71875 262.172628 
L 1137.46625 262.172628 
" clip-path="url(#p4ba02eaed4)" style="fill: none; stroke: #ffffff; stroke-opacity: 0.3; stroke-width: 0.8; stroke-linecap: round"/>
     </g>
     <g id="line2d_58"/>
     <g id="text_41">
      <!-- 0.75 -->
      <g style="fill: #262626" transform="translate(590.757812 265.751534) scale(0.1 -0.1)">
       <defs>
        <path id="ArialMT-37" d="M 303 3981 
L 303 4522 
L 3269 4522 
L 3269 4084 
Q 2831 3619 2401 2847 
Q 1972 2075 1738 1259 
Q 1569 684 1522 0 
L 944 0 
Q 953 541 1156 1306 
Q 1359 2072 1739 2783 
Q 2119 3494 2547 3981 
L 303 3981 
z
" transform="scale(0.015625)"/>
       </defs>
       <use xlink:href="#ArialMT-30"/>
       <use xlink:href="#ArialMT-2e" transform="translate(55.615234 0)"/>
       <use xlink:href="#ArialMT-37" transform="translate(83.398438 0)"/>
       <use xlink:href="#ArialMT-35" transform="translate(139.013672 0)"/>
      </g>
     </g>
    </g>
    <g id="ytick_13">
     <g id="line2d_59">
      <path d="M 613.71875 220.201004 
L 1137.46625 220.201004 
" clip-path="url(#p4ba02eaed4)" style="fill: none; stroke: #ffffff; stroke-opacity: 0.3; stroke-width: 0.8; stroke-linecap: round"/>
     </g>
     <g id="line2d_60"/>
     <g id="text_42">
      <!-- 1.00 -->
      <g style="fill: #262626" transform="translate(590.757812 223.77991) scale(0.1 -0.1)">
       <use xlink:href="#ArialMT-31"/>
       <use xlink:href="#ArialMT-2e" transform="translate(55.615234 0)"/>
       <use xlink:href="#ArialMT-30" transform="translate(83.398438 0)"/>
       <use xlink:href="#ArialMT-30" transform="translate(139.013672 0)"/>
      </g>
     </g>
    </g>
    <g id="ytick_14">
     <g id="line2d_61">
      <path d="M 613.71875 178.22938 
L 1137.46625 178.22938 
" clip-path="url(#p4ba02eaed4)" style="fill: none; stroke: #ffffff; stroke-opacity: 0.3; stroke-width: 0.8; stroke-linecap: round"/>
     </g>
     <g id="line2d_62"/>
     <g id="text_43">
      <!-- 1.25 -->
      <g style="fill: #262626" transform="translate(590.757812 181.808286) scale(0.1 -0.1)">
       <use xlink:href="#ArialMT-31"/>
       <use xlink:href="#ArialMT-2e" transform="translate(55.615234 0)"/>
       <use xlink:href="#ArialMT-32" transform="translate(83.398438 0)"/>
       <use xlink:href="#ArialMT-35" transform="translate(139.013672 0)"/>
      </g>
     </g>
    </g>
    <g id="ytick_15">
     <g id="line2d_63">
      <path d="M 613.71875 136.257756 
L 1137.46625 136.257756 
" clip-path="url(#p4ba02eaed4)" style="fill: none; stroke: #ffffff; stroke-opacity: 0.3; stroke-width: 0.8; stroke-linecap: round"/>
     </g>
     <g id="line2d_64"/>
     <g id="text_44">
      <!-- 1.50 -->
      <g style="fill: #262626" transform="translate(590.757812 139.836662) scale(0.1 -0.1)">
       <use xlink:href="#ArialMT-31"/>
       <use xlink:href="#ArialMT-2e" transform="translate(55.615234 0)"/>
       <use xlink:href="#ArialMT-35" transform="translate(83.398438 0)"/>
       <use xlink:href="#ArialMT-30" transform="translate(139.013672 0)"/>
      </g>
     </g>
    </g>
    <g id="ytick_16">
     <g id="line2d_65">
      <path d="M 613.71875 94.286131 
L 1137.46625 94.286131 
" clip-path="url(#p4ba02eaed4)" style="fill: none; stroke: #ffffff; stroke-opacity: 0.3; stroke-width: 0.8; stroke-linecap: round"/>
     </g>
     <g id="line2d_66"/>
     <g id="text_45">
      <!-- 1.75 -->
      <g style="fill: #262626" transform="translate(590.757812 97.865038) scale(0.1 -0.1)">
       <use xlink:href="#ArialMT-31"/>
       <use xlink:href="#ArialMT-2e" transform="translate(55.615234 0)"/>
       <use xlink:href="#ArialMT-37" transform="translate(83.398438 0)"/>
       <use xlink:href="#ArialMT-35" transform="translate(139.013672 0)"/>
      </g>
     </g>
    </g>
    <g id="ytick_17">
     <g id="line2d_67">
      <path d="M 613.71875 52.314507 
L 1137.46625 52.314507 
" clip-path="url(#p4ba02eaed4)" style="fill: none; stroke: #ffffff; stroke-opacity: 0.3; stroke-width: 0.8; stroke-linecap: round"/>
     </g>
     <g id="line2d_68"/>
     <g id="text_46">
      <!-- 2.00 -->
      <g style="fill: #262626" transform="translate(590.757812 55.893414) scale(0.1 -0.1)">
       <use xlink:href="#ArialMT-32"/>
       <use xlink:href="#ArialMT-2e" transform="translate(55.615234 0)"/>
       <use xlink:href="#ArialMT-30" transform="translate(83.398438 0)"/>
       <use xlink:href="#ArialMT-30" transform="translate(139.013672 0)"/>
      </g>
     </g>
    </g>
    <g id="text_47">
     <!-- Execution Time (seconds) -->
     <g style="fill: #262626" transform="translate(583.81125 293.079375) rotate(-90) scale(0.14 -0.14)">
      <defs>
       <path id="Arial-BoldMT-45" d="M 466 0 
L 466 4581 
L 3863 4581 
L 3863 3806 
L 1391 3806 
L 1391 2791 
L 3691 2791 
L 3691 2019 
L 1391 2019 
L 1391 772 
L 3950 772 
L 3950 0 
L 466 0 
z
" transform="scale(0.015625)"/>
       <path id="Arial-BoldMT-28" d="M 1916 -1347 
L 1313 -1347 
Q 834 -625 584 153 
Q 334 931 334 1659 
Q 334 2563 644 3369 
Q 913 4069 1325 4659 
L 1925 4659 
Q 1497 3713 1336 3048 
Q 1175 2384 1175 1641 
Q 1175 1128 1270 590 
Q 1366 53 1531 -431 
Q 1641 -750 1916 -1347 
z
" transform="scale(0.015625)"/>
       <path id="Arial-BoldMT-29" d="M 216 -1347 
Q 475 -791 581 -494 
Q 688 -197 778 190 
Q 869 578 912 926 
Q 956 1275 956 1641 
Q 956 2384 797 3048 
Q 638 3713 209 4659 
L 806 4659 
Q 1278 3988 1539 3234 
Q 1800 2481 1800 1706 
Q 1800 1053 1594 306 
Q 1359 -531 822 -1347 
L 216 -1347 
z
" transform="scale(0.015625)"/>
      </defs>
      <use xlink:href="#Arial-BoldMT-45"/>
      <use xlink:href="#Arial-BoldMT-78" transform="translate(66.699219 0)"/>
      <use xlink:href="#Arial-BoldMT-65" transform="translate(122.314453 0)"/>
      <use xlink:href="#Arial-BoldMT-63" transform="translate(177.929688 0)"/>
      <use xlink:href="#Arial-BoldMT-75" transform="translate(233.544922 0)"/>
      <use xlink:href="#Arial-BoldMT-74" transform="translate(294.628906 0)"/>
      <use xlink:href="#Arial-BoldMT-69" transform="translate(327.929688 0)"/>
      <use xlink:href="#Arial-BoldMT-6f" transform="translate(355.712891 0)"/>
      <use xlink:href="#Arial-BoldMT-6e" transform="translate(416.796875 0)"/>
      <use xlink:href="#Arial-BoldMT-20" transform="translate(477.880859 0)"/>
      <use xlink:href="#Arial-BoldMT-54" transform="translate(505.664062 0)"/>
      <use xlink:href="#Arial-BoldMT-69" transform="translate(564.998047 0)"/>
      <use xlink:href="#Arial-BoldMT-6d" transform="translate(592.78125 0)"/>
      <use xlink:href="#Arial-BoldMT-65" transform="translate(681.697266 0)"/>
      <use xlink:href="#Arial-BoldMT-20" transform="translate(737.3125 0)"/>
      <use xlink:href="#Arial-BoldMT-28" transform="translate(765.095703 0)"/>
      <use xlink:href="#Arial-BoldMT-73" transform="translate(798.396484 0)"/>
      <use xlink:href="#Arial-BoldMT-65" transform="translate(854.011719 0)"/>
      <use xlink:href="#Arial-BoldMT-63" transform="translate(909.626953 0)"/>
      <use xlink:href="#Arial-BoldMT-6f" transform="translate(965.242188 0)"/>
      <use xlink:href="#Arial-BoldMT-6e" transform="translate(1026.326172 0)"/>
      <use xlink:href="#Arial-BoldMT-64" transform="translate(1087.410156 0)"/>
      <use xlink:href="#Arial-BoldMT-73" transform="translate(1148.494141 0)"/>
      <use xlink:href="#Arial-BoldMT-29" transform="translate(1204.109375 0)"/>
     </g>
    </g>
   </g>
   <g id="patch_16">
    <path d="M 637.525455 388.0875 
L 659.167913 388.0875 
L 659.167913 377.439929 
L 637.525455 377.439929 
z
" clip-path="url(#p4ba02eaed4)" style="fill: #2e8b57; opacity: 0.8; stroke: #000000; stroke-linejoin: miter"/>
   </g>
   <g id="patch_17">
    <path d="M 699.361051 388.0875 
L 721.003509 388.0875 
L 721.003509 376.338698 
L 699.361051 376.338698 
z
" clip-path="url(#p4ba02eaed4)" style="fill: #2e8b57; opacity: 0.8; stroke: #000000; stroke-linejoin: miter"/>
   </g>
   <g id="patch_18">
    <path d="M 761.196647 388.0875 
L 782.839106 388.0875 
L 782.839106 370.383925 
L 761.196647 370.383925 
z
" clip-path="url(#p4ba02eaed4)" style="fill: #2e8b57; opacity: 0.8; stroke: #000000; stroke-linejoin: miter"/>
   </g>
   <g id="patch_19">
    <path d="M 823.032243 388.0875 
L 844.674702 388.0875 
L 844.674702 361.368273 
L 823.032243 361.368273 
z
" clip-path="url(#p4ba02eaed4)" style="fill: #2e8b57; opacity: 0.8; stroke: #000000; stroke-linejoin: miter"/>
   </g>
   <g id="patch_20">
    <path d="M 884.867839 388.0875 
L 906.510298 388.0875 
L 906.510298 366.665526 
L 884.867839 366.665526 
z
" clip-path="url(#p4ba02eaed4)" style="fill: #2e8b57; opacity: 0.8; stroke: #000000; stroke-linejoin: miter"/>
   </g>
   <g id="patch_21">
    <path d="M 946.703436 388.0875 
L 968.345894 388.0875 
L 968.345894 375.09447 
L 946.703436 375.09447 
z
" clip-path="url(#p4ba02eaed4)" style="fill: #2e8b57; opacity: 0.8; stroke: #000000; stroke-linejoin: miter"/>
   </g>
   <g id="patch_22">
    <path d="M 1008.539032 388.0875 
L 1030.181491 388.0875 
L 1030.181491 370.317568 
L 1008.539032 370.317568 
z
" clip-path="url(#p4ba02eaed4)" style="fill: #2e8b57; opacity: 0.8; stroke: #000000; stroke-linejoin: miter"/>
   </g>
   <g id="patch_23">
    <path d="M 1070.374628 388.0875 
L 1092.017087 388.0875 
L 1092.017087 361.541483 
L 1070.374628 361.541483 
z
" clip-path="url(#p4ba02eaed4)" style="fill: #2e8b57; opacity: 0.8; stroke: #000000; stroke-linejoin: miter"/>
   </g>
   <g id="patch_24">
    <path d="M 659.167913 388.0875 
L 680.810372 388.0875 
L 680.810372 349.259306 
L 659.167913 349.259306 
z
" clip-path="url(#p4ba02eaed4)" style="fill: #ff6347; opacity: 0.8; stroke: #000000; stroke-linejoin: miter"/>
   </g>
   <g id="patch_25">
    <path d="M 721.003509 388.0875 
L 742.645968 388.0875 
L 742.645968 345.661379 
L 721.003509 345.661379 
z
" clip-path="url(#p4ba02eaed4)" style="fill: #ff6347; opacity: 0.8; stroke: #000000; stroke-linejoin: miter"/>
   </g>
   <g id="patch_26">
    <path d="M 782.839106 388.0875 
L 804.481564 388.0875 
L 804.481564 338.212528 
L 782.839106 338.212528 
z
" clip-path="url(#p4ba02eaed4)" style="fill: #ff6347; opacity: 0.8; stroke: #000000; stroke-linejoin: miter"/>
   </g>
   <g id="patch_27">
    <path d="M 844.674702 388.0875 
L 866.317161 388.0875 
L 866.317161 335.914561 
L 844.674702 335.914561 
z
" clip-path="url(#p4ba02eaed4)" style="fill: #ff6347; opacity: 0.8; stroke: #000000; stroke-linejoin: miter"/>
   </g>
   <g id="patch_28">
    <path d="M 906.510298 388.0875 
L 928.152757 388.0875 
L 928.152757 321.386769 
L 906.510298 321.386769 
z
" clip-path="url(#p4ba02eaed4)" style="fill: #ff6347; opacity: 0.8; stroke: #000000; stroke-linejoin: miter"/>
   </g>
   <g id="patch_29">
    <path d="M 968.345894 388.0875 
L 989.988353 388.0875 
L 989.988353 277.08409 
L 968.345894 277.08409 
z
" clip-path="url(#p4ba02eaed4)" style="fill: #ff6347; opacity: 0.8; stroke: #000000; stroke-linejoin: miter"/>
   </g>
   <g id="patch_30">
    <path d="M 1030.181491 388.0875 
L 1051.823949 388.0875 
L 1051.823949 203.026705 
L 1030.181491 203.026705 
z
" clip-path="url(#p4ba02eaed4)" style="fill: #ff6347; opacity: 0.8; stroke: #000000; stroke-linejoin: miter"/>
   </g>
   <g id="patch_31">
    <path d="M 1092.017087 388.0875 
L 1113.659545 388.0875 
L 1113.659545 42.144643 
L 1092.017087 42.144643 
z
" clip-path="url(#p4ba02eaed4)" style="fill: #ff6347; opacity: 0.8; stroke: #000000; stroke-linejoin: miter"/>
   </g>
   <g id="patch_32">
    <path d="M 613.71875 388.0875 
L 613.71875 24.8475 
" style="fill: none"/>
   </g>
   <g id="patch_33">
    <path d="M 1137.46625 388.0875 
L 1137.46625 24.8475 
" style="fill: none"/>
   </g>
   <g id="patch_34">
    <path d="M 613.71875 388.0875 
L 1137.46625 388.0875 
" style="fill: none"/>
   </g>
   <g id="patch_35">
    <path d="M 613.71875 24.8475 
L 1137.46625 24.8475 
" style="fill: none"/>
   </g>
   <g id="text_48">
    <!-- 0.06s -->
    <g style="fill: #262626" transform="translate(636.116215 373.773564) scale(0.1 -0.1)">
     <use xlink:href="#ArialMT-30"/>
     <use xlink:href="#ArialMT-2e" transform="translate(55.615234 0)"/>
     <use xlink:href="#ArialMT-30" transform="translate(83.398438 0)"/>
     <use xlink:href="#ArialMT-36" transform="translate(139.013672 0)"/>
     <use xlink:href="#ArialMT-73" transform="translate(194.628906 0)"/>
    </g>
   </g>
   <g id="text_49">
    <!-- 0.07s -->
    <g style="fill: #262626" transform="translate(697.951811 372.672333) scale(0.1 -0.1)">
     <use xlink:href="#ArialMT-30"/>
     <use xlink:href="#ArialMT-2e" transform="translate(55.615234 0)"/>
     <use xlink:href="#ArialMT-30" transform="translate(83.398438 0)"/>
     <use xlink:href="#ArialMT-37" transform="translate(139.013672 0)"/>
     <use xlink:href="#ArialMT-73" transform="translate(194.628906 0)"/>
    </g>
   </g>
   <g id="text_50">
    <!-- 0.11s -->
    <g style="fill: #262626" transform="translate(760.156158 366.71756) scale(0.1 -0.1)">
     <use xlink:href="#ArialMT-30"/>
     <use xlink:href="#ArialMT-2e" transform="translate(55.615234 0)"/>
     <use xlink:href="#ArialMT-31" transform="translate(83.398438 0)"/>
     <use xlink:href="#ArialMT-31" transform="translate(131.638672 0)"/>
     <use xlink:href="#ArialMT-73" transform="translate(187.253906 0)"/>
    </g>
   </g>
   <g id="text_51">
    <!-- 0.16s -->
    <g style="fill: #262626" transform="translate(821.623004 357.701908) scale(0.1 -0.1)">
     <use xlink:href="#ArialMT-30"/>
     <use xlink:href="#ArialMT-2e" transform="translate(55.615234 0)"/>
     <use xlink:href="#ArialMT-31" transform="translate(83.398438 0)"/>
     <use xlink:href="#ArialMT-36" transform="translate(139.013672 0)"/>
     <use xlink:href="#ArialMT-73" transform="translate(194.628906 0)"/>
    </g>
   </g>
   <g id="text_52">
    <!-- 0.13s -->
    <g style="fill: #262626" transform="translate(883.4586 362.999161) scale(0.1 -0.1)">
     <defs>
      <path id="ArialMT-33" d="M 269 1209 
L 831 1284 
Q 928 806 1161 595 
Q 1394 384 1728 384 
Q 2125 384 2398 659 
Q 2672 934 2672 1341 
Q 2672 1728 2419 1979 
Q 2166 2231 1775 2231 
Q 1616 2231 1378 2169 
L 1441 2663 
Q 1497 2656 1531 2656 
Q 1891 2656 2178 2843 
Q 2466 3031 2466 3422 
Q 2466 3731 2256 3934 
Q 2047 4138 1716 4138 
Q 1388 4138 1169 3931 
Q 950 3725 888 3313 
L 325 3413 
Q 428 3978 793 4289 
Q 1159 4600 1703 4600 
Q 2078 4600 2393 4439 
Q 2709 4278 2876 4000 
Q 3044 3722 3044 3409 
Q 3044 3113 2884 2869 
Q 2725 2625 2413 2481 
Q 2819 2388 3044 2092 
Q 3269 1797 3269 1353 
Q 3269 753 2831 336 
Q 2394 -81 1725 -81 
Q 1122 -81 723 278 
Q 325 638 269 1209 
z
" transform="scale(0.015625)"/>
     </defs>
     <use xlink:href="#ArialMT-30"/>
     <use xlink:href="#ArialMT-2e" transform="translate(55.615234 0)"/>
     <use xlink:href="#ArialMT-31" transform="translate(83.398438 0)"/>
     <use xlink:href="#ArialMT-33" transform="translate(139.013672 0)"/>
     <use xlink:href="#ArialMT-73" transform="translate(194.628906 0)"/>
    </g>
   </g>
   <g id="text_53">
    <!-- 0.08s -->
    <g style="fill: #262626" transform="translate(945.294196 371.428105) scale(0.1 -0.1)">
     <use xlink:href="#ArialMT-30"/>
     <use xlink:href="#ArialMT-2e" transform="translate(55.615234 0)"/>
     <use xlink:href="#ArialMT-30" transform="translate(83.398438 0)"/>
     <use xlink:href="#ArialMT-38" transform="translate(139.013672 0)"/>
     <use xlink:href="#ArialMT-73" transform="translate(194.628906 0)"/>
    </g>
   </g>
   <g id="text_54">
    <!-- 0.11s -->
    <g style="fill: #262626" transform="translate(1007.498542 366.651203) scale(0.1 -0.1)">
     <use xlink:href="#ArialMT-30"/>
     <use xlink:href="#ArialMT-2e" transform="translate(55.615234 0)"/>
     <use xlink:href="#ArialMT-31" transform="translate(83.398438 0)"/>
     <use xlink:href="#ArialMT-31" transform="translate(131.638672 0)"/>
     <use xlink:href="#ArialMT-73" transform="translate(187.253906 0)"/>
    </g>
   </g>
   <g id="text_55">
    <!-- 0.16s -->
    <g style="fill: #262626" transform="translate(1068.965389 357.875118) scale(0.1 -0.1)">
     <use xlink:href="#ArialMT-30"/>
     <use xlink:href="#ArialMT-2e" transform="translate(55.615234 0)"/>
     <use xlink:href="#ArialMT-31" transform="translate(83.398438 0)"/>
     <use xlink:href="#ArialMT-36" transform="translate(139.013672 0)"/>
     <use xlink:href="#ArialMT-73" transform="translate(194.628906 0)"/>
    </g>
   </g>
   <g id="text_56">
    <!-- 0.23s -->
    <g style="fill: #262626" transform="translate(657.758674 345.592941) scale(0.1 -0.1)">
     <use xlink:href="#ArialMT-30"/>
     <use xlink:href="#ArialMT-2e" transform="translate(55.615234 0)"/>
     <use xlink:href="#ArialMT-32" transform="translate(83.398438 0)"/>
     <use xlink:href="#ArialMT-33" transform="translate(139.013672 0)"/>
     <use xlink:href="#ArialMT-73" transform="translate(194.628906 0)"/>
    </g>
   </g>
   <g id="text_57">
    <!-- 0.25s -->
    <g style="fill: #262626" transform="translate(719.59427 341.995014) scale(0.1 -0.1)">
     <use xlink:href="#ArialMT-30"/>
     <use xlink:href="#ArialMT-2e" transform="translate(55.615234 0)"/>
     <use xlink:href="#ArialMT-32" transform="translate(83.398438 0)"/>
     <use xlink:href="#ArialMT-35" transform="translate(139.013672 0)"/>
     <use xlink:href="#ArialMT-73" transform="translate(194.628906 0)"/>
    </g>
   </g>
   <g id="text_58">
    <!-- 0.30s -->
    <g style="fill: #262626" transform="translate(781.429866 334.546163) scale(0.1 -0.1)">
     <use xlink:href="#ArialMT-30"/>
     <use xlink:href="#ArialMT-2e" transform="translate(55.615234 0)"/>
     <use xlink:href="#ArialMT-33" transform="translate(83.398438 0)"/>
     <use xlink:href="#ArialMT-30" transform="translate(139.013672 0)"/>
     <use xlink:href="#ArialMT-73" transform="translate(194.628906 0)"/>
    </g>
   </g>
   <g id="text_59">
    <!-- 0.31s -->
    <g style="fill: #262626" transform="translate(843.265462 332.248196) scale(0.1 -0.1)">
     <use xlink:href="#ArialMT-30"/>
     <use xlink:href="#ArialMT-2e" transform="translate(55.615234 0)"/>
     <use xlink:href="#ArialMT-33" transform="translate(83.398438 0)"/>
     <use xlink:href="#ArialMT-31" transform="translate(139.013672 0)"/>
     <use xlink:href="#ArialMT-73" transform="translate(194.628906 0)"/>
    </g>
   </g>
   <g id="text_60">
    <!-- 0.40s -->
    <g style="fill: #262626" transform="translate(905.101059 317.720404) scale(0.1 -0.1)">
     <use xlink:href="#ArialMT-30"/>
     <use xlink:href="#ArialMT-2e" transform="translate(55.615234 0)"/>
     <use xlink:href="#ArialMT-34" transform="translate(83.398438 0)"/>
     <use xlink:href="#ArialMT-30" transform="translate(139.013672 0)"/>
     <use xlink:href="#ArialMT-73" transform="translate(194.628906 0)"/>
    </g>
   </g>
   <g id="text_61">
    <!-- 0.66s -->
    <g style="fill: #262626" transform="translate(966.936655 273.417725) scale(0.1 -0.1)">
     <use xlink:href="#ArialMT-30"/>
     <use xlink:href="#ArialMT-2e" transform="translate(55.615234 0)"/>
     <use xlink:href="#ArialMT-36" transform="translate(83.398438 0)"/>
     <use xlink:href="#ArialMT-36" transform="translate(139.013672 0)"/>
     <use xlink:href="#ArialMT-73" transform="translate(194.628906 0)"/>
    </g>
   </g>
   <g id="text_62">
    <!-- 1.10s -->
    <g style="fill: #262626" transform="translate(1028.772251 199.36034) scale(0.1 -0.1)">
     <use xlink:href="#ArialMT-31"/>
     <use xlink:href="#ArialMT-2e" transform="translate(55.615234 0)"/>
     <use xlink:href="#ArialMT-31" transform="translate(83.398438 0)"/>
     <use xlink:href="#ArialMT-30" transform="translate(139.013672 0)"/>
     <use xlink:href="#ArialMT-73" transform="translate(194.628906 0)"/>
    </g>
   </g>
   <g id="text_63">
    <!-- 2.06s -->
    <g style="fill: #262626" transform="translate(1090.607847 38.478278) scale(0.1 -0.1)">
     <use xlink:href="#ArialMT-32"/>
     <use xlink:href="#ArialMT-2e" transform="translate(55.615234 0)"/>
     <use xlink:href="#ArialMT-30" transform="translate(83.398438 0)"/>
     <use xlink:href="#ArialMT-36" transform="translate(139.013672 0)"/>
     <use xlink:href="#ArialMT-73" transform="translate(194.628906 0)"/>
    </g>
   </g>
   <g id="text_64">
    <!-- â±ï¸ Absolute Performance Comparison -->
    <g style="fill: #262626" transform="translate(727.42625 18.8475) scale(0.16 -0.16)">
     <defs>
      <path id="Arial-BoldMT-23f1" d="M 800 0 
L 800 4000 
L 4000 4000 
L 4000 0 
L 800 0 
z
M 900 100 
L 3900 100 
L 3900 3900 
L 900 3900 
L 900 100 
z
" transform="scale(0.015625)"/>
      <path id="Arial-BoldMT-fe0f" d="M 800 0 
L 800 4000 
L 4000 4000 
L 4000 0 
L 800 0 
z
M 900 100 
L 3900 100 
L 3900 3900 
L 900 3900 
L 900 100 
z
" transform="scale(0.015625)"/>
      <path id="Arial-BoldMT-41" d="M 4597 0 
L 3591 0 
L 3191 1041 
L 1359 1041 
L 981 0 
L 0 0 
L 1784 4581 
L 2763 4581 
L 4597 0 
z
M 2894 1813 
L 2263 3513 
L 1644 1813 
L 2894 1813 
z
" transform="scale(0.015625)"/>
      <path id="Arial-BoldMT-62" d="M 422 0 
L 422 4581 
L 1300 4581 
L 1300 2931 
Q 1706 3394 2263 3394 
Q 2869 3394 3266 2955 
Q 3663 2516 3663 1694 
Q 3663 844 3258 384 
Q 2853 -75 2275 -75 
Q 1991 -75 1714 67 
Q 1438 209 1238 488 
L 1238 0 
L 422 0 
z
M 1294 1731 
Q 1294 1216 1456 969 
Q 1684 619 2063 619 
Q 2353 619 2558 867 
Q 2763 1116 2763 1650 
Q 2763 2219 2556 2470 
Q 2350 2722 2028 2722 
Q 1713 2722 1503 2476 
Q 1294 2231 1294 1731 
z
" transform="scale(0.015625)"/>
      <path id="Arial-BoldMT-6c" d="M 459 0 
L 459 4581 
L 1338 4581 
L 1338 0 
L 459 0 
z
" transform="scale(0.015625)"/>
      <path id="Arial-BoldMT-43" d="M 3397 1684 
L 4294 1400 
Q 4088 650 3608 286 
Q 3128 -78 2391 -78 
Q 1478 -78 890 545 
Q 303 1169 303 2250 
Q 303 3394 893 4026 
Q 1484 4659 2447 4659 
Q 3288 4659 3813 4163 
Q 4125 3869 4281 3319 
L 3366 3100 
Q 3284 3456 3026 3662 
Q 2769 3869 2400 3869 
Q 1891 3869 1573 3503 
Q 1256 3138 1256 2319 
Q 1256 1450 1568 1081 
Q 1881 713 2381 713 
Q 2750 713 3015 947 
Q 3281 1181 3397 1684 
z
" transform="scale(0.015625)"/>
     </defs>
     <use xlink:href="#Arial-BoldMT-23f1"/>
     <use xlink:href="#Arial-BoldMT-fe0f" transform="translate(75 0)"/>
     <use xlink:href="#Arial-BoldMT-20" transform="translate(150 0)"/>
     <use xlink:href="#Arial-BoldMT-41" transform="translate(174.033203 0)"/>
     <use xlink:href="#Arial-BoldMT-62" transform="translate(246.25 0)"/>
     <use xlink:href="#Arial-BoldMT-73" transform="translate(307.333984 0)"/>
     <use xlink:href="#Arial-BoldMT-6f" transform="translate(362.949219 0)"/>
     <use xlink:href="#Arial-BoldMT-6c" transform="translate(424.033203 0)"/>
     <use xlink:href="#Arial-BoldMT-75" transform="translate(451.816406 0)"/>
     <use xlink:href="#Arial-BoldMT-74" transform="translate(512.900391 0)"/>
     <use xlink:href="#Arial-BoldMT-65" transform="translate(546.201172 0)"/>
     <use xlink:href="#Arial-BoldMT-20" transform="translate(601.816406 0)"/>
     <use xlink:href="#Arial-BoldMT-50" transform="translate(629.599609 0)"/>
     <use xlink:href="#Arial-BoldMT-65" transform="translate(696.298828 0)"/>
     <use xlink:href="#Arial-BoldMT-72" transform="translate(751.914062 0)"/>
     <use xlink:href="#Arial-BoldMT-66" transform="translate(790.830078 0)"/>
     <use xlink:href="#Arial-BoldMT-6f" transform="translate(824.130859 0)"/>
     <use xlink:href="#Arial-BoldMT-72" transform="translate(885.214844 0)"/>
     <use xlink:href="#Arial-BoldMT-6d" transform="translate(924.130859 0)"/>
     <use xlink:href="#Arial-BoldMT-61" transform="translate(1013.046875 0)"/>
     <use xlink:href="#Arial-BoldMT-6e" transform="translate(1068.662109 0)"/>
     <use xlink:href="#Arial-BoldMT-63" transform="translate(1129.746094 0)"/>
     <use xlink:href="#Arial-BoldMT-65" transform="translate(1185.361328 0)"/>
     <use xlink:href="#Arial-BoldMT-20" transform="translate(1240.976562 0)"/>
     <use xlink:href="#Arial-BoldMT-43" transform="translate(1268.759766 0)"/>
     <use xlink:href="#Arial-BoldMT-6f" transform="translate(1340.976562 0)"/>
     <use xlink:href="#Arial-BoldMT-6d" transform="translate(1402.060547 0)"/>
     <use xlink:href="#Arial-BoldMT-70" transform="translate(1490.976562 0)"/>
     <use xlink:href="#Arial-BoldMT-61" transform="translate(1552.060547 0)"/>
     <use xlink:href="#Arial-BoldMT-72" transform="translate(1607.675781 0)"/>
     <use xlink:href="#Arial-BoldMT-69" transform="translate(1646.591797 0)"/>
     <use xlink:href="#Arial-BoldMT-73" transform="translate(1674.375 0)"/>
     <use xlink:href="#Arial-BoldMT-6f" transform="translate(1729.990234 0)"/>
     <use xlink:href="#Arial-BoldMT-6e" transform="translate(1791.074219 0)"/>
    </g>
   </g>
   <g id="legend_2">
    <g id="patch_36">
     <path d="M 622.71875 41.005312 
L 642.71875 41.005312 
L 642.71875 34.005312 
L 622.71875 34.005312 
z
" style="fill: #2e8b57; opacity: 0.8; stroke: #000000; stroke-linejoin: miter"/>
    </g>
    <g id="text_65">
     <!-- Fastest -->
     <g style="fill: #262626" transform="translate(650.71875 41.005312) scale(0.1 -0.1)">
      <defs>
       <path id="ArialMT-46" d="M 525 0 
L 525 4581 
L 3616 4581 
L 3616 4041 
L 1131 4041 
L 1131 2622 
L 3281 2622 
L 3281 2081 
L 1131 2081 
L 1131 0 
L 525 0 
z
" transform="scale(0.015625)"/>
       <path id="ArialMT-61" d="M 2588 409 
Q 2275 144 1986 34 
Q 1697 -75 1366 -75 
Q 819 -75 525 192 
Q 231 459 231 875 
Q 231 1119 342 1320 
Q 453 1522 633 1644 
Q 813 1766 1038 1828 
Q 1203 1872 1538 1913 
Q 2219 1994 2541 2106 
Q 2544 2222 2544 2253 
Q 2544 2597 2384 2738 
Q 2169 2928 1744 2928 
Q 1347 2928 1158 2789 
Q 969 2650 878 2297 
L 328 2372 
Q 403 2725 575 2942 
Q 747 3159 1072 3276 
Q 1397 3394 1825 3394 
Q 2250 3394 2515 3294 
Q 2781 3194 2906 3042 
Q 3031 2891 3081 2659 
Q 3109 2516 3109 2141 
L 3109 1391 
Q 3109 606 3145 398 
Q 3181 191 3288 0 
L 2700 0 
Q 2613 175 2588 409 
z
M 2541 1666 
Q 2234 1541 1622 1453 
Q 1275 1403 1131 1340 
Q 988 1278 909 1158 
Q 831 1038 831 891 
Q 831 666 1001 516 
Q 1172 366 1500 366 
Q 1825 366 2078 508 
Q 2331 650 2450 897 
Q 2541 1088 2541 1459 
L 2541 1666 
z
" transform="scale(0.015625)"/>
      </defs>
      <use xlink:href="#ArialMT-46"/>
      <use xlink:href="#ArialMT-61" transform="translate(61.083984 0)"/>
      <use xlink:href="#ArialMT-73" transform="translate(116.699219 0)"/>
      <use xlink:href="#ArialMT-74" transform="translate(166.699219 0)"/>
      <use xlink:href="#ArialMT-65" transform="translate(194.482422 0)"/>
      <use xlink:href="#ArialMT-73" transform="translate(250.097656 0)"/>
      <use xlink:href="#ArialMT-74" transform="translate(300.097656 0)"/>
     </g>
    </g>
    <g id="patch_37">
     <path d="M 622.71875 55.150625 
L 642.71875 55.150625 
L 642.71875 48.150625 
L 622.71875 48.150625 
z
" style="fill: #ff6347; opacity: 0.8; stroke: #000000; stroke-linejoin: miter"/>
    </g>
    <g id="text_66">
     <!-- pytest -->
     <g style="fill: #262626" transform="translate(650.71875 55.150625) scale(0.1 -0.1)">
      <defs>
       <path id="ArialMT-79" d="M 397 -1278 
L 334 -750 
Q 519 -800 656 -800 
Q 844 -800 956 -737 
Q 1069 -675 1141 -563 
Q 1194 -478 1313 -144 
Q 1328 -97 1363 -6 
L 103 3319 
L 709 3319 
L 1400 1397 
Q 1534 1031 1641 628 
Q 1738 1016 1872 1384 
L 2581 3319 
L 3144 3319 
L 1881 -56 
Q 1678 -603 1566 -809 
Q 1416 -1088 1222 -1217 
Q 1028 -1347 759 -1347 
Q 597 -1347 397 -1278 
z
" transform="scale(0.015625)"/>
      </defs>
      <use xlink:href="#ArialMT-70"/>
      <use xlink:href="#ArialMT-79" transform="translate(55.615234 0)"/>
      <use xlink:href="#ArialMT-74" transform="translate(105.615234 0)"/>
      <use xlink:href="#ArialMT-65" transform="translate(133.398438 0)"/>
      <use xlink:href="#ArialMT-73" transform="translate(189.013672 0)"/>
      <use xlink:href="#ArialMT-74" transform="translate(239.013672 0)"/>
     </g>
    </g>
   </g>
  </g>
 </g>
 <defs>
  <clipPath id="pbeee3090d3">
   <rect x="38.77625" y="24.8475" width="523.7475" height="363.24"/>
  </clipPath>
  <clipPath id="p4ba02eaed4">
   <rect x="613.71875" y="24.8475" width="523.7475" height="363.24"/>
  </clipPath>
 </defs>
</svg>
